<svg width="445" height="533" viewBox="0 0 445 533" fill="none" xmlns="http://www.w3.org/2000/svg">
<path d="M1.5 480L20 499H419V20.0001L400 1V480H1.5Z" fill="#EFF5F5"/>
<path d="M399.793 0.5L419.5 20.2071V499.5H20.2071L0.5 479.793V0.5H399.793Z" stroke="#555252"/>
<path d="M404 5V484H5M408 9V488H9M412 13V492H13M416 17V496H17" stroke="#555252"/>
<rect x="0.5" y="0.5" width="399" height="479" stroke="#555252"/>
<path d="M424.5 71H423V72.5H424.5V71Z" fill="black"/>
<path d="M428.5 75H427V76.5H428.5V75Z" fill="black"/>
<path d="M432.5 71H431V72.5H432.5V71Z" fill="black"/>
<path d="M436.5 75H435V76.5H436.5V75Z" fill="black"/>
<path d="M424.5 79H423V80.5H424.5V79Z" fill="black"/>
<path d="M428.5 83H427V84.5H428.5V83Z" fill="black"/>
<path d="M432.5 79H431V80.5H432.5V79Z" fill="black"/>
<path d="M436.5 83H435V84.5H436.5V83Z" fill="black"/>
<path d="M440.5 71H439V72.5H440.5V71Z" fill="black"/>
<path d="M444.5 75H443V76.5H444.5V75Z" fill="black"/>
<path d="M440.5 79H439V80.5H440.5V79Z" fill="black"/>
<path d="M444.5 83H443V84.5H444.5V83Z" fill="black"/>
<path d="M424.5 87H423V88.5H424.5V87Z" fill="black"/>
<path d="M428.5 91H427V92.5H428.5V91Z" fill="black"/>
<path d="M432.5 87H431V88.5H432.5V87Z" fill="black"/>
<path d="M436.5 91H435V92.5H436.5V91Z" fill="black"/>
<path d="M424.5 95H423V96.5H424.5V95Z" fill="black"/>
<path d="M428.5 99H427V100.5H428.5V99Z" fill="black"/>
<path d="M432.5 95H431V96.5H432.5V95Z" fill="black"/>
<path d="M436.5 99H435V100.5H436.5V99Z" fill="black"/>
<path d="M440.5 87H439V88.5H440.5V87Z" fill="black"/>
<path d="M444.5 91H443V92.5H444.5V91Z" fill="black"/>
<path d="M440.5 95H439V96.5H440.5V95Z" fill="black"/>
<path d="M444.5 99H443V100.5H444.5V99Z" fill="black"/>
<path d="M424.5 39H423V40.5H424.5V39Z" fill="black"/>
<path d="M428.5 43H427V44.5H428.5V43Z" fill="black"/>
<path d="M432.5 39H431V40.5H432.5V39Z" fill="black"/>
<path d="M436.5 43H435V44.5H436.5V43Z" fill="black"/>
<path d="M424.5 47H423V48.5H424.5V47Z" fill="black"/>
<path d="M428.5 51H427V52.5H428.5V51Z" fill="black"/>
<path d="M432.5 47H431V48.5H432.5V47Z" fill="black"/>
<path d="M436.5 51H435V52.5H436.5V51Z" fill="black"/>
<path d="M440.5 39H439V40.5H440.5V39Z" fill="black"/>
<path d="M444.5 43H443V44.5H444.5V43Z" fill="black"/>
<path d="M440.5 47H439V48.5H440.5V47Z" fill="black"/>
<path d="M444.5 51H443V52.5H444.5V51Z" fill="black"/>
<path d="M424.5 55H423V56.5H424.5V55Z" fill="black"/>
<path d="M428.5 59H427V60.5H428.5V59Z" fill="black"/>
<path d="M432.5 55H431V56.5H432.5V55Z" fill="black"/>
<path d="M436.5 59H435V60.5H436.5V59Z" fill="black"/>
<path d="M424.5 63H423V64.5H424.5V63Z" fill="black"/>
<path d="M428.5 67H427V68.5H428.5V67Z" fill="black"/>
<path d="M432.5 63H431V64.5H432.5V63Z" fill="black"/>
<path d="M436.5 67H435V68.5H436.5V67Z" fill="black"/>
<path d="M440.5 55H439V56.5H440.5V55Z" fill="black"/>
<path d="M444.5 59H443V60.5H444.5V59Z" fill="black"/>
<path d="M440.5 63H439V64.5H440.5V63Z" fill="black"/>
<path d="M444.5 67H443V68.5H444.5V67Z" fill="black"/>
<path d="M424.5 135H423V136.5H424.5V135Z" fill="black"/>
<path d="M428.5 139H427V140.5H428.5V139Z" fill="black"/>
<path d="M432.5 135H431V136.5H432.5V135Z" fill="black"/>
<path d="M436.5 139H435V140.5H436.5V139Z" fill="black"/>
<path d="M424.5 143H423V144.5H424.5V143Z" fill="black"/>
<path d="M428.5 147H427V148.5H428.5V147Z" fill="black"/>
<path d="M432.5 143H431V144.5H432.5V143Z" fill="black"/>
<path d="M436.5 147H435V148.5H436.5V147Z" fill="black"/>
<path d="M440.5 135H439V136.5H440.5V135Z" fill="black"/>
<path d="M444.5 139H443V140.5H444.5V139Z" fill="black"/>
<path d="M440.5 143H439V144.5H440.5V143Z" fill="black"/>
<path d="M444.5 147H443V148.5H444.5V147Z" fill="black"/>
<path d="M424.5 151H423V152.5H424.5V151Z" fill="black"/>
<path d="M428.5 155H427V156.5H428.5V155Z" fill="black"/>
<path d="M432.5 151H431V152.5H432.5V151Z" fill="black"/>
<path d="M436.5 155H435V156.5H436.5V155Z" fill="black"/>
<path d="M424.5 159H423V160.5H424.5V159Z" fill="black"/>
<path d="M428.5 163H427V164.5H428.5V163Z" fill="black"/>
<path d="M432.5 159H431V160.5H432.5V159Z" fill="black"/>
<path d="M436.5 163H435V164.5H436.5V163Z" fill="black"/>
<path d="M440.5 151H439V152.5H440.5V151Z" fill="black"/>
<path d="M444.5 155H443V156.5H444.5V155Z" fill="black"/>
<path d="M440.5 159H439V160.5H440.5V159Z" fill="black"/>
<path d="M444.5 163H443V164.5H444.5V163Z" fill="black"/>
<path d="M424.5 103H423V104.5H424.5V103Z" fill="black"/>
<path d="M428.5 107H427V108.5H428.5V107Z" fill="black"/>
<path d="M432.5 103H431V104.5H432.5V103Z" fill="black"/>
<path d="M436.5 107H435V108.5H436.5V107Z" fill="black"/>
<path d="M424.5 111H423V112.5H424.5V111Z" fill="black"/>
<path d="M428.5 115H427V116.5H428.5V115Z" fill="black"/>
<path d="M432.5 111H431V112.5H432.5V111Z" fill="black"/>
<path d="M436.5 115H435V116.5H436.5V115Z" fill="black"/>
<path d="M440.5 103H439V104.5H440.5V103Z" fill="black"/>
<path d="M444.5 107H443V108.5H444.5V107Z" fill="black"/>
<path d="M440.5 111H439V112.5H440.5V111Z" fill="black"/>
<path d="M444.5 115H443V116.5H444.5V115Z" fill="black"/>
<path d="M424.5 119H423V120.5H424.5V119Z" fill="black"/>
<path d="M428.5 123H427V124.5H428.5V123Z" fill="black"/>
<path d="M432.5 119H431V120.5H432.5V119Z" fill="black"/>
<path d="M436.5 123H435V124.5H436.5V123Z" fill="black"/>
<path d="M424.5 127H423V128.5H424.5V127Z" fill="black"/>
<path d="M428.5 131H427V132.5H428.5V131Z" fill="black"/>
<path d="M432.5 127H431V128.5H432.5V127Z" fill="black"/>
<path d="M436.5 131H435V132.5H436.5V131Z" fill="black"/>
<path d="M440.5 119H439V120.5H440.5V119Z" fill="black"/>
<path d="M444.5 123H443V124.5H444.5V123Z" fill="black"/>
<path d="M440.5 127H439V128.5H440.5V127Z" fill="black"/>
<path d="M444.5 131H443V132.5H444.5V131Z" fill="black"/>
<path d="M424.5 199H423V200.5H424.5V199Z" fill="black"/>
<path d="M428.5 203H427V204.5H428.5V203Z" fill="black"/>
<path d="M432.5 199H431V200.5H432.5V199Z" fill="black"/>
<path d="M436.5 203H435V204.5H436.5V203Z" fill="black"/>
<path d="M424.5 207H423V208.5H424.5V207Z" fill="black"/>
<path d="M428.5 211H427V212.5H428.5V211Z" fill="black"/>
<path d="M432.5 207H431V208.5H432.5V207Z" fill="black"/>
<path d="M436.5 211H435V212.5H436.5V211Z" fill="black"/>
<path d="M440.5 199H439V200.5H440.5V199Z" fill="black"/>
<path d="M444.5 203H443V204.5H444.5V203Z" fill="black"/>
<path d="M440.5 207H439V208.5H440.5V207Z" fill="black"/>
<path d="M444.5 211H443V212.5H444.5V211Z" fill="black"/>
<path d="M424.5 215H423V216.5H424.5V215Z" fill="black"/>
<path d="M428.5 219H427V220.5H428.5V219Z" fill="black"/>
<path d="M432.5 215H431V216.5H432.5V215Z" fill="black"/>
<path d="M436.5 219H435V220.5H436.5V219Z" fill="black"/>
<path d="M424.5 223H423V224.5H424.5V223Z" fill="black"/>
<path d="M428.5 227H427V228.5H428.5V227Z" fill="black"/>
<path d="M432.5 223H431V224.5H432.5V223Z" fill="black"/>
<path d="M436.5 227H435V228.5H436.5V227Z" fill="black"/>
<path d="M440.5 215H439V216.5H440.5V215Z" fill="black"/>
<path d="M444.5 219H443V220.5H444.5V219Z" fill="black"/>
<path d="M440.5 223H439V224.5H440.5V223Z" fill="black"/>
<path d="M444.5 227H443V228.5H444.5V227Z" fill="black"/>
<path d="M424.5 167H423V168.5H424.5V167Z" fill="black"/>
<path d="M428.5 171H427V172.5H428.5V171Z" fill="black"/>
<path d="M432.5 167H431V168.5H432.5V167Z" fill="black"/>
<path d="M436.5 171H435V172.5H436.5V171Z" fill="black"/>
<path d="M424.5 175H423V176.5H424.5V175Z" fill="black"/>
<path d="M428.5 179H427V180.5H428.5V179Z" fill="black"/>
<path d="M432.5 175H431V176.5H432.5V175Z" fill="black"/>
<path d="M436.5 179H435V180.5H436.5V179Z" fill="black"/>
<path d="M440.5 167H439V168.5H440.5V167Z" fill="black"/>
<path d="M444.5 171H443V172.5H444.5V171Z" fill="black"/>
<path d="M440.5 175H439V176.5H440.5V175Z" fill="black"/>
<path d="M444.5 179H443V180.5H444.5V179Z" fill="black"/>
<path d="M424.5 183H423V184.5H424.5V183Z" fill="black"/>
<path d="M428.5 187H427V188.5H428.5V187Z" fill="black"/>
<path d="M432.5 183H431V184.5H432.5V183Z" fill="black"/>
<path d="M436.5 187H435V188.5H436.5V187Z" fill="black"/>
<path d="M424.5 191H423V192.5H424.5V191Z" fill="black"/>
<path d="M428.5 195H427V196.5H428.5V195Z" fill="black"/>
<path d="M432.5 191H431V192.5H432.5V191Z" fill="black"/>
<path d="M436.5 195H435V196.5H436.5V195Z" fill="black"/>
<path d="M440.5 183H439V184.5H440.5V183Z" fill="black"/>
<path d="M444.5 187H443V188.5H444.5V187Z" fill="black"/>
<path d="M440.5 191H439V192.5H440.5V191Z" fill="black"/>
<path d="M444.5 195H443V196.5H444.5V195Z" fill="black"/>
<path d="M424.5 263H423V264.5H424.5V263Z" fill="black"/>
<path d="M428.5 267H427V268.5H428.5V267Z" fill="black"/>
<path d="M432.5 263H431V264.5H432.5V263Z" fill="black"/>
<path d="M436.5 267H435V268.5H436.5V267Z" fill="black"/>
<path d="M424.5 271H423V272.5H424.5V271Z" fill="black"/>
<path d="M428.5 275H427V276.5H428.5V275Z" fill="black"/>
<path d="M432.5 271H431V272.5H432.5V271Z" fill="black"/>
<path d="M436.5 275H435V276.5H436.5V275Z" fill="black"/>
<path d="M440.5 263H439V264.5H440.5V263Z" fill="black"/>
<path d="M444.5 267H443V268.5H444.5V267Z" fill="black"/>
<path d="M440.5 271H439V272.5H440.5V271Z" fill="black"/>
<path d="M444.5 275H443V276.5H444.5V275Z" fill="black"/>
<path d="M424.5 279H423V280.5H424.5V279Z" fill="black"/>
<path d="M428.5 283H427V284.5H428.5V283Z" fill="black"/>
<path d="M432.5 279H431V280.5H432.5V279Z" fill="black"/>
<path d="M436.5 283H435V284.5H436.5V283Z" fill="black"/>
<path d="M424.5 287H423V288.5H424.5V287Z" fill="black"/>
<path d="M428.5 291H427V292.5H428.5V291Z" fill="black"/>
<path d="M432.5 287H431V288.5H432.5V287Z" fill="black"/>
<path d="M436.5 291H435V292.5H436.5V291Z" fill="black"/>
<path d="M440.5 279H439V280.5H440.5V279Z" fill="black"/>
<path d="M444.5 283H443V284.5H444.5V283Z" fill="black"/>
<path d="M440.5 287H439V288.5H440.5V287Z" fill="black"/>
<path d="M444.5 291H443V292.5H444.5V291Z" fill="black"/>
<path d="M424.5 231H423V232.5H424.5V231Z" fill="black"/>
<path d="M428.5 235H427V236.5H428.5V235Z" fill="black"/>
<path d="M432.5 231H431V232.5H432.5V231Z" fill="black"/>
<path d="M436.5 235H435V236.5H436.5V235Z" fill="black"/>
<path d="M424.5 239H423V240.5H424.5V239Z" fill="black"/>
<path d="M428.5 243H427V244.5H428.5V243Z" fill="black"/>
<path d="M432.5 239H431V240.5H432.5V239Z" fill="black"/>
<path d="M436.5 243H435V244.5H436.5V243Z" fill="black"/>
<path d="M440.5 231H439V232.5H440.5V231Z" fill="black"/>
<path d="M444.5 235H443V236.5H444.5V235Z" fill="black"/>
<path d="M440.5 239H439V240.5H440.5V239Z" fill="black"/>
<path d="M444.5 243H443V244.5H444.5V243Z" fill="black"/>
<path d="M424.5 247H423V248.5H424.5V247Z" fill="black"/>
<path d="M428.5 251H427V252.5H428.5V251Z" fill="black"/>
<path d="M432.5 247H431V248.5H432.5V247Z" fill="black"/>
<path d="M436.5 251H435V252.5H436.5V251Z" fill="black"/>
<path d="M424.5 255H423V256.5H424.5V255Z" fill="black"/>
<path d="M428.5 259H427V260.5H428.5V259Z" fill="black"/>
<path d="M432.5 255H431V256.5H432.5V255Z" fill="black"/>
<path d="M436.5 259H435V260.5H436.5V259Z" fill="black"/>
<path d="M440.5 247H439V248.5H440.5V247Z" fill="black"/>
<path d="M444.5 251H443V252.5H444.5V251Z" fill="black"/>
<path d="M440.5 255H439V256.5H440.5V255Z" fill="black"/>
<path d="M444.5 259H443V260.5H444.5V259Z" fill="black"/>
<path d="M424.5 327H423V328.5H424.5V327Z" fill="black"/>
<path d="M428.5 331H427V332.5H428.5V331Z" fill="black"/>
<path d="M432.5 327H431V328.5H432.5V327Z" fill="black"/>
<path d="M436.5 331H435V332.5H436.5V331Z" fill="black"/>
<path d="M424.5 335H423V336.5H424.5V335Z" fill="black"/>
<path d="M428.5 339H427V340.5H428.5V339Z" fill="black"/>
<path d="M432.5 335H431V336.5H432.5V335Z" fill="black"/>
<path d="M436.5 339H435V340.5H436.5V339Z" fill="black"/>
<path d="M440.5 327H439V328.5H440.5V327Z" fill="black"/>
<path d="M444.5 331H443V332.5H444.5V331Z" fill="black"/>
<path d="M440.5 335H439V336.5H440.5V335Z" fill="black"/>
<path d="M444.5 339H443V340.5H444.5V339Z" fill="black"/>
<path d="M424.5 343H423V344.5H424.5V343Z" fill="black"/>
<path d="M428.5 347H427V348.5H428.5V347Z" fill="black"/>
<path d="M432.5 343H431V344.5H432.5V343Z" fill="black"/>
<path d="M436.5 347H435V348.5H436.5V347Z" fill="black"/>
<path d="M424.5 351H423V352.5H424.5V351Z" fill="black"/>
<path d="M428.5 355H427V356.5H428.5V355Z" fill="black"/>
<path d="M432.5 351H431V352.5H432.5V351Z" fill="black"/>
<path d="M436.5 355H435V356.5H436.5V355Z" fill="black"/>
<path d="M440.5 343H439V344.5H440.5V343Z" fill="black"/>
<path d="M444.5 347H443V348.5H444.5V347Z" fill="black"/>
<path d="M440.5 351H439V352.5H440.5V351Z" fill="black"/>
<path d="M444.5 355H443V356.5H444.5V355Z" fill="black"/>
<path d="M424.5 295H423V296.5H424.5V295Z" fill="black"/>
<path d="M428.5 299H427V300.5H428.5V299Z" fill="black"/>
<path d="M432.5 295H431V296.5H432.5V295Z" fill="black"/>
<path d="M436.5 299H435V300.5H436.5V299Z" fill="black"/>
<path d="M424.5 303H423V304.5H424.5V303Z" fill="black"/>
<path d="M428.5 307H427V308.5H428.5V307Z" fill="black"/>
<path d="M432.5 303H431V304.5H432.5V303Z" fill="black"/>
<path d="M436.5 307H435V308.5H436.5V307Z" fill="black"/>
<path d="M440.5 295H439V296.5H440.5V295Z" fill="black"/>
<path d="M444.5 299H443V300.5H444.5V299Z" fill="black"/>
<path d="M440.5 303H439V304.5H440.5V303Z" fill="black"/>
<path d="M444.5 307H443V308.5H444.5V307Z" fill="black"/>
<path d="M424.5 311H423V312.5H424.5V311Z" fill="black"/>
<path d="M428.5 315H427V316.5H428.5V315Z" fill="black"/>
<path d="M432.5 311H431V312.5H432.5V311Z" fill="black"/>
<path d="M436.5 315H435V316.5H436.5V315Z" fill="black"/>
<path d="M424.5 319H423V320.5H424.5V319Z" fill="black"/>
<path d="M428.5 323H427V324.5H428.5V323Z" fill="black"/>
<path d="M432.5 319H431V320.5H432.5V319Z" fill="black"/>
<path d="M436.5 323H435V324.5H436.5V323Z" fill="black"/>
<path d="M440.5 311H439V312.5H440.5V311Z" fill="black"/>
<path d="M444.5 315H443V316.5H444.5V315Z" fill="black"/>
<path d="M440.5 319H439V320.5H440.5V319Z" fill="black"/>
<path d="M444.5 323H443V324.5H444.5V323Z" fill="black"/>
<path d="M424.5 391H423V392.5H424.5V391Z" fill="black"/>
<path d="M428.5 395H427V396.5H428.5V395Z" fill="black"/>
<path d="M432.5 391H431V392.5H432.5V391Z" fill="black"/>
<path d="M436.5 395H435V396.5H436.5V395Z" fill="black"/>
<path d="M424.5 399H423V400.5H424.5V399Z" fill="black"/>
<path d="M428.5 403H427V404.5H428.5V403Z" fill="black"/>
<path d="M432.5 399H431V400.5H432.5V399Z" fill="black"/>
<path d="M436.5 403H435V404.5H436.5V403Z" fill="black"/>
<path d="M440.5 391H439V392.5H440.5V391Z" fill="black"/>
<path d="M444.5 395H443V396.5H444.5V395Z" fill="black"/>
<path d="M440.5 399H439V400.5H440.5V399Z" fill="black"/>
<path d="M444.5 403H443V404.5H444.5V403Z" fill="black"/>
<path d="M424.5 407H423V408.5H424.5V407Z" fill="black"/>
<path d="M428.5 411H427V412.5H428.5V411Z" fill="black"/>
<path d="M432.5 407H431V408.5H432.5V407Z" fill="black"/>
<path d="M436.5 411H435V412.5H436.5V411Z" fill="black"/>
<path d="M424.5 415H423V416.5H424.5V415Z" fill="black"/>
<path d="M428.5 419H427V420.5H428.5V419Z" fill="black"/>
<path d="M432.5 415H431V416.5H432.5V415Z" fill="black"/>
<path d="M436.5 419H435V420.5H436.5V419Z" fill="black"/>
<path d="M440.5 407H439V408.5H440.5V407Z" fill="black"/>
<path d="M444.5 411H443V412.5H444.5V411Z" fill="black"/>
<path d="M440.5 415H439V416.5H440.5V415Z" fill="black"/>
<path d="M444.5 419H443V420.5H444.5V419Z" fill="black"/>
<path d="M424.5 359H423V360.5H424.5V359Z" fill="black"/>
<path d="M428.5 363H427V364.5H428.5V363Z" fill="black"/>
<path d="M432.5 359H431V360.5H432.5V359Z" fill="black"/>
<path d="M436.5 363H435V364.5H436.5V363Z" fill="black"/>
<path d="M424.5 367H423V368.5H424.5V367Z" fill="black"/>
<path d="M428.5 371H427V372.5H428.5V371Z" fill="black"/>
<path d="M432.5 367H431V368.5H432.5V367Z" fill="black"/>
<path d="M436.5 371H435V372.5H436.5V371Z" fill="black"/>
<path d="M440.5 359H439V360.5H440.5V359Z" fill="black"/>
<path d="M444.5 363H443V364.5H444.5V363Z" fill="black"/>
<path d="M440.5 367H439V368.5H440.5V367Z" fill="black"/>
<path d="M444.5 371H443V372.5H444.5V371Z" fill="black"/>
<path d="M424.5 375H423V376.5H424.5V375Z" fill="black"/>
<path d="M428.5 379H427V380.5H428.5V379Z" fill="black"/>
<path d="M432.5 375H431V376.5H432.5V375Z" fill="black"/>
<path d="M436.5 379H435V380.5H436.5V379Z" fill="black"/>
<path d="M424.5 383H423V384.5H424.5V383Z" fill="black"/>
<path d="M428.5 387H427V388.5H428.5V387Z" fill="black"/>
<path d="M432.5 383H431V384.5H432.5V383Z" fill="black"/>
<path d="M436.5 387H435V388.5H436.5V387Z" fill="black"/>
<path d="M440.5 375H439V376.5H440.5V375Z" fill="black"/>
<path d="M444.5 379H443V380.5H444.5V379Z" fill="black"/>
<path d="M440.5 383H439V384.5H440.5V383Z" fill="black"/>
<path d="M444.5 387H443V388.5H444.5V387Z" fill="black"/>
<path d="M424.5 455H423V456.5H424.5V455Z" fill="black"/>
<path d="M428.5 459H427V460.5H428.5V459Z" fill="black"/>
<path d="M432.5 455H431V456.5H432.5V455Z" fill="black"/>
<path d="M436.5 459H435V460.5H436.5V459Z" fill="black"/>
<path d="M424.5 463H423V464.5H424.5V463Z" fill="black"/>
<path d="M428.5 467H427V468.5H428.5V467Z" fill="black"/>
<path d="M432.5 463H431V464.5H432.5V463Z" fill="black"/>
<path d="M436.5 467H435V468.5H436.5V467Z" fill="black"/>
<path d="M440.5 455H439V456.5H440.5V455Z" fill="black"/>
<path d="M444.5 459H443V460.5H444.5V459Z" fill="black"/>
<path d="M440.5 463H439V464.5H440.5V463Z" fill="black"/>
<path d="M444.5 467H443V468.5H444.5V467Z" fill="black"/>
<path d="M424.5 471H423V472.5H424.5V471Z" fill="black"/>
<path d="M428.5 475H427V476.5H428.5V475Z" fill="black"/>
<path d="M432.5 471H431V472.5H432.5V471Z" fill="black"/>
<path d="M436.5 475H435V476.5H436.5V475Z" fill="black"/>
<path d="M424.5 479H423V480.5H424.5V479Z" fill="black"/>
<path d="M428.5 483H427V484.5H428.5V483Z" fill="black"/>
<path d="M432.5 479H431V480.5H432.5V479Z" fill="black"/>
<path d="M436.5 483H435V484.5H436.5V483Z" fill="black"/>
<path d="M440.5 471H439V472.5H440.5V471Z" fill="black"/>
<path d="M444.5 475H443V476.5H444.5V475Z" fill="black"/>
<path d="M440.5 479H439V480.5H440.5V479Z" fill="black"/>
<path d="M444.5 483H443V484.5H444.5V483Z" fill="black"/>
<path d="M424.5 423H423V424.5H424.5V423Z" fill="black"/>
<path d="M428.5 427H427V428.5H428.5V427Z" fill="black"/>
<path d="M432.5 423H431V424.5H432.5V423Z" fill="black"/>
<path d="M436.5 427H435V428.5H436.5V427Z" fill="black"/>
<path d="M424.5 431H423V432.5H424.5V431Z" fill="black"/>
<path d="M428.5 435H427V436.5H428.5V435Z" fill="black"/>
<path d="M432.5 431H431V432.5H432.5V431Z" fill="black"/>
<path d="M436.5 435H435V436.5H436.5V435Z" fill="black"/>
<path d="M440.5 423H439V424.5H440.5V423Z" fill="black"/>
<path d="M444.5 427H443V428.5H444.5V427Z" fill="black"/>
<path d="M440.5 431H439V432.5H440.5V431Z" fill="black"/>
<path d="M444.5 435H443V436.5H444.5V435Z" fill="black"/>
<path d="M424.5 439H423V440.5H424.5V439Z" fill="black"/>
<path d="M428.5 443H427V444.5H428.5V443Z" fill="black"/>
<path d="M432.5 439H431V440.5H432.5V439Z" fill="black"/>
<path d="M436.5 443H435V444.5H436.5V443Z" fill="black"/>
<path d="M424.5 447H423V448.5H424.5V447Z" fill="black"/>
<path d="M428.5 451H427V452.5H428.5V451Z" fill="black"/>
<path d="M432.5 447H431V448.5H432.5V447Z" fill="black"/>
<path d="M436.5 451H435V452.5H436.5V451Z" fill="black"/>
<path d="M440.5 439H439V440.5H440.5V439Z" fill="black"/>
<path d="M444.5 443H443V444.5H444.5V443Z" fill="black"/>
<path d="M440.5 447H439V448.5H440.5V447Z" fill="black"/>
<path d="M444.5 451H443V452.5H444.5V451Z" fill="black"/>
<path d="M424.5 519H423V520.5H424.5V519Z" fill="black"/>
<path d="M428.5 523H427V524.5H428.5V523Z" fill="black"/>
<path d="M432.5 519H431V520.5H432.5V519Z" fill="black"/>
<path d="M436.5 523H435V524.5H436.5V523Z" fill="black"/>
<path d="M424.5 527H423V528.5H424.5V527Z" fill="black"/>
<path d="M428.5 531H427V532.5H428.5V531Z" fill="black"/>
<path d="M432.5 527H431V528.5H432.5V527Z" fill="black"/>
<path d="M436.5 531H435V532.5H436.5V531Z" fill="black"/>
<path d="M440.5 519H439V520.5H440.5V519Z" fill="black"/>
<path d="M444.5 523H443V524.5H444.5V523Z" fill="black"/>
<path d="M440.5 527H439V528.5H440.5V527Z" fill="black"/>
<path d="M444.5 531H443V532.5H444.5V531Z" fill="black"/>
<path d="M424.5 487H423V488.5H424.5V487Z" fill="black"/>
<path d="M428.5 491H427V492.5H428.5V491Z" fill="black"/>
<path d="M432.5 487H431V488.5H432.5V487Z" fill="black"/>
<path d="M436.5 491H435V492.5H436.5V491Z" fill="black"/>
<path d="M424.5 495H423V496.5H424.5V495Z" fill="black"/>
<path d="M428.5 499H427V500.5H428.5V499Z" fill="black"/>
<path d="M432.5 495H431V496.5H432.5V495Z" fill="black"/>
<path d="M436.5 499H435V500.5H436.5V499Z" fill="black"/>
<path d="M440.5 487H439V488.5H440.5V487Z" fill="black"/>
<path d="M444.5 491H443V492.5H444.5V491Z" fill="black"/>
<path d="M440.5 495H439V496.5H440.5V495Z" fill="black"/>
<path d="M444.5 499H443V500.5H444.5V499Z" fill="black"/>
<path d="M424.5 503H423V504.5H424.5V503Z" fill="black"/>
<path d="M428.5 507H427V508.5H428.5V507Z" fill="black"/>
<path d="M432.5 503H431V504.5H432.5V503Z" fill="black"/>
<path d="M436.5 507H435V508.5H436.5V507Z" fill="black"/>
<path d="M424.5 511H423V512.5H424.5V511Z" fill="black"/>
<path d="M428.5 515H427V516.5H428.5V515Z" fill="black"/>
<path d="M432.5 511H431V512.5H432.5V511Z" fill="black"/>
<path d="M436.5 515H435V516.5H436.5V515Z" fill="black"/>
<path d="M440.5 503H439V504.5H440.5V503Z" fill="black"/>
<path d="M444.5 507H443V508.5H444.5V507Z" fill="black"/>
<path d="M440.5 511H439V512.5H440.5V511Z" fill="black"/>
<path d="M444.5 515H443V516.5H444.5V515Z" fill="black"/>
<path d="M400.5 519H399V520.5H400.5V519Z" fill="black"/>
<path d="M404.5 523H403V524.5H404.5V523Z" fill="black"/>
<path d="M408.5 519H407V520.5H408.5V519Z" fill="black"/>
<path d="M412.5 523H411V524.5H412.5V523Z" fill="black"/>
<path d="M400.5 527H399V528.5H400.5V527Z" fill="black"/>
<path d="M404.5 531H403V532.5H404.5V531Z" fill="black"/>
<path d="M408.5 527H407V528.5H408.5V527Z" fill="black"/>
<path d="M412.5 531H411V532.5H412.5V531Z" fill="black"/>
<path d="M416.5 519H415V520.5H416.5V519Z" fill="black"/>
<path d="M420.5 523H419V524.5H420.5V523Z" fill="black"/>
<path d="M416.5 527H415V528.5H416.5V527Z" fill="black"/>
<path d="M420.5 531H419V532.5H420.5V531Z" fill="black"/>
<path d="M400.5 503H399V504.5H400.5V503Z" fill="black"/>
<path d="M404.5 507H403V508.5H404.5V507Z" fill="black"/>
<path d="M408.5 503H407V504.5H408.5V503Z" fill="black"/>
<path d="M412.5 507H411V508.5H412.5V507Z" fill="black"/>
<path d="M400.5 511H399V512.5H400.5V511Z" fill="black"/>
<path d="M404.5 515H403V516.5H404.5V515Z" fill="black"/>
<path d="M408.5 511H407V512.5H408.5V511Z" fill="black"/>
<path d="M412.5 515H411V516.5H412.5V515Z" fill="black"/>
<path d="M416.5 503H415V504.5H416.5V503Z" fill="black"/>
<path d="M420.5 507H419V508.5H420.5V507Z" fill="black"/>
<path d="M416.5 511H415V512.5H416.5V511Z" fill="black"/>
<path d="M420.5 515H419V516.5H420.5V515Z" fill="black"/>
<path d="M376.5 519H375V520.5H376.5V519Z" fill="black"/>
<path d="M380.5 523H379V524.5H380.5V523Z" fill="black"/>
<path d="M384.5 519H383V520.5H384.5V519Z" fill="black"/>
<path d="M388.5 523H387V524.5H388.5V523Z" fill="black"/>
<path d="M376.5 527H375V528.5H376.5V527Z" fill="black"/>
<path d="M380.5 531H379V532.5H380.5V531Z" fill="black"/>
<path d="M384.5 527H383V528.5H384.5V527Z" fill="black"/>
<path d="M388.5 531H387V532.5H388.5V531Z" fill="black"/>
<path d="M392.5 519H391V520.5H392.5V519Z" fill="black"/>
<path d="M396.5 523H395V524.5H396.5V523Z" fill="black"/>
<path d="M392.5 527H391V528.5H392.5V527Z" fill="black"/>
<path d="M396.5 531H395V532.5H396.5V531Z" fill="black"/>
<path d="M376.5 503H375V504.5H376.5V503Z" fill="black"/>
<path d="M380.5 507H379V508.5H380.5V507Z" fill="black"/>
<path d="M384.5 503H383V504.5H384.5V503Z" fill="black"/>
<path d="M388.5 507H387V508.5H388.5V507Z" fill="black"/>
<path d="M376.5 511H375V512.5H376.5V511Z" fill="black"/>
<path d="M380.5 515H379V516.5H380.5V515Z" fill="black"/>
<path d="M384.5 511H383V512.5H384.5V511Z" fill="black"/>
<path d="M388.5 515H387V516.5H388.5V515Z" fill="black"/>
<path d="M392.5 503H391V504.5H392.5V503Z" fill="black"/>
<path d="M396.5 507H395V508.5H396.5V507Z" fill="black"/>
<path d="M392.5 511H391V512.5H392.5V511Z" fill="black"/>
<path d="M396.5 515H395V516.5H396.5V515Z" fill="black"/>
<path d="M352.5 519H351V520.5H352.5V519Z" fill="black"/>
<path d="M356.5 523H355V524.5H356.5V523Z" fill="black"/>
<path d="M360.5 519H359V520.5H360.5V519Z" fill="black"/>
<path d="M364.5 523H363V524.5H364.5V523Z" fill="black"/>
<path d="M352.5 527H351V528.5H352.5V527Z" fill="black"/>
<path d="M356.5 531H355V532.5H356.5V531Z" fill="black"/>
<path d="M360.5 527H359V528.5H360.5V527Z" fill="black"/>
<path d="M364.5 531H363V532.5H364.5V531Z" fill="black"/>
<path d="M368.5 519H367V520.5H368.5V519Z" fill="black"/>
<path d="M372.5 523H371V524.5H372.5V523Z" fill="black"/>
<path d="M368.5 527H367V528.5H368.5V527Z" fill="black"/>
<path d="M372.5 531H371V532.5H372.5V531Z" fill="black"/>
<path d="M352.5 503H351V504.5H352.5V503Z" fill="black"/>
<path d="M356.5 507H355V508.5H356.5V507Z" fill="black"/>
<path d="M360.5 503H359V504.5H360.5V503Z" fill="black"/>
<path d="M364.5 507H363V508.5H364.5V507Z" fill="black"/>
<path d="M352.5 511H351V512.5H352.5V511Z" fill="black"/>
<path d="M356.5 515H355V516.5H356.5V515Z" fill="black"/>
<path d="M360.5 511H359V512.5H360.5V511Z" fill="black"/>
<path d="M364.5 515H363V516.5H364.5V515Z" fill="black"/>
<path d="M368.5 503H367V504.5H368.5V503Z" fill="black"/>
<path d="M372.5 507H371V508.5H372.5V507Z" fill="black"/>
<path d="M368.5 511H367V512.5H368.5V511Z" fill="black"/>
<path d="M372.5 515H371V516.5H372.5V515Z" fill="black"/>
<path d="M328.5 519H327V520.5H328.5V519Z" fill="black"/>
<path d="M332.5 523H331V524.5H332.5V523Z" fill="black"/>
<path d="M336.5 519H335V520.5H336.5V519Z" fill="black"/>
<path d="M340.5 523H339V524.5H340.5V523Z" fill="black"/>
<path d="M328.5 527H327V528.5H328.5V527Z" fill="black"/>
<path d="M332.5 531H331V532.5H332.5V531Z" fill="black"/>
<path d="M336.5 527H335V528.5H336.5V527Z" fill="black"/>
<path d="M340.5 531H339V532.5H340.5V531Z" fill="black"/>
<path d="M344.5 519H343V520.5H344.5V519Z" fill="black"/>
<path d="M348.5 523H347V524.5H348.5V523Z" fill="black"/>
<path d="M344.5 527H343V528.5H344.5V527Z" fill="black"/>
<path d="M348.5 531H347V532.5H348.5V531Z" fill="black"/>
<path d="M328.5 503H327V504.5H328.5V503Z" fill="black"/>
<path d="M332.5 507H331V508.5H332.5V507Z" fill="black"/>
<path d="M336.5 503H335V504.5H336.5V503Z" fill="black"/>
<path d="M340.5 507H339V508.5H340.5V507Z" fill="black"/>
<path d="M328.5 511H327V512.5H328.5V511Z" fill="black"/>
<path d="M332.5 515H331V516.5H332.5V515Z" fill="black"/>
<path d="M336.5 511H335V512.5H336.5V511Z" fill="black"/>
<path d="M340.5 515H339V516.5H340.5V515Z" fill="black"/>
<path d="M344.5 503H343V504.5H344.5V503Z" fill="black"/>
<path d="M348.5 507H347V508.5H348.5V507Z" fill="black"/>
<path d="M344.5 511H343V512.5H344.5V511Z" fill="black"/>
<path d="M348.5 515H347V516.5H348.5V515Z" fill="black"/>
<path d="M304.5 519H303V520.5H304.5V519Z" fill="black"/>
<path d="M308.5 523H307V524.5H308.5V523Z" fill="black"/>
<path d="M312.5 519H311V520.5H312.5V519Z" fill="black"/>
<path d="M316.5 523H315V524.5H316.5V523Z" fill="black"/>
<path d="M304.5 527H303V528.5H304.5V527Z" fill="black"/>
<path d="M308.5 531H307V532.5H308.5V531Z" fill="black"/>
<path d="M312.5 527H311V528.5H312.5V527Z" fill="black"/>
<path d="M316.5 531H315V532.5H316.5V531Z" fill="black"/>
<path d="M320.5 519H319V520.5H320.5V519Z" fill="black"/>
<path d="M324.5 523H323V524.5H324.5V523Z" fill="black"/>
<path d="M320.5 527H319V528.5H320.5V527Z" fill="black"/>
<path d="M324.5 531H323V532.5H324.5V531Z" fill="black"/>
<path d="M304.5 503H303V504.5H304.5V503Z" fill="black"/>
<path d="M308.5 507H307V508.5H308.5V507Z" fill="black"/>
<path d="M312.5 503H311V504.5H312.5V503Z" fill="black"/>
<path d="M316.5 507H315V508.5H316.5V507Z" fill="black"/>
<path d="M304.5 511H303V512.5H304.5V511Z" fill="black"/>
<path d="M308.5 515H307V516.5H308.5V515Z" fill="black"/>
<path d="M312.5 511H311V512.5H312.5V511Z" fill="black"/>
<path d="M316.5 515H315V516.5H316.5V515Z" fill="black"/>
<path d="M320.5 503H319V504.5H320.5V503Z" fill="black"/>
<path d="M324.5 507H323V508.5H324.5V507Z" fill="black"/>
<path d="M320.5 511H319V512.5H320.5V511Z" fill="black"/>
<path d="M324.5 515H323V516.5H324.5V515Z" fill="black"/>
<path d="M280.5 519H279V520.5H280.5V519Z" fill="black"/>
<path d="M284.5 523H283V524.5H284.5V523Z" fill="black"/>
<path d="M288.5 519H287V520.5H288.5V519Z" fill="black"/>
<path d="M292.5 523H291V524.5H292.5V523Z" fill="black"/>
<path d="M280.5 527H279V528.5H280.5V527Z" fill="black"/>
<path d="M284.5 531H283V532.5H284.5V531Z" fill="black"/>
<path d="M288.5 527H287V528.5H288.5V527Z" fill="black"/>
<path d="M292.5 531H291V532.5H292.5V531Z" fill="black"/>
<path d="M296.5 519H295V520.5H296.5V519Z" fill="black"/>
<path d="M300.5 523H299V524.5H300.5V523Z" fill="black"/>
<path d="M296.5 527H295V528.5H296.5V527Z" fill="black"/>
<path d="M300.5 531H299V532.5H300.5V531Z" fill="black"/>
<path d="M280.5 503H279V504.5H280.5V503Z" fill="black"/>
<path d="M284.5 507H283V508.5H284.5V507Z" fill="black"/>
<path d="M288.5 503H287V504.5H288.5V503Z" fill="black"/>
<path d="M292.5 507H291V508.5H292.5V507Z" fill="black"/>
<path d="M280.5 511H279V512.5H280.5V511Z" fill="black"/>
<path d="M284.5 515H283V516.5H284.5V515Z" fill="black"/>
<path d="M288.5 511H287V512.5H288.5V511Z" fill="black"/>
<path d="M292.5 515H291V516.5H292.5V515Z" fill="black"/>
<path d="M296.5 503H295V504.5H296.5V503Z" fill="black"/>
<path d="M300.5 507H299V508.5H300.5V507Z" fill="black"/>
<path d="M296.5 511H295V512.5H296.5V511Z" fill="black"/>
<path d="M300.5 515H299V516.5H300.5V515Z" fill="black"/>
<path d="M256.5 519H255V520.5H256.5V519Z" fill="black"/>
<path d="M260.5 523H259V524.5H260.5V523Z" fill="black"/>
<path d="M264.5 519H263V520.5H264.5V519Z" fill="black"/>
<path d="M268.5 523H267V524.5H268.5V523Z" fill="black"/>
<path d="M256.5 527H255V528.5H256.5V527Z" fill="black"/>
<path d="M260.5 531H259V532.5H260.5V531Z" fill="black"/>
<path d="M264.5 527H263V528.5H264.5V527Z" fill="black"/>
<path d="M268.5 531H267V532.5H268.5V531Z" fill="black"/>
<path d="M272.5 519H271V520.5H272.5V519Z" fill="black"/>
<path d="M276.5 523H275V524.5H276.5V523Z" fill="black"/>
<path d="M272.5 527H271V528.5H272.5V527Z" fill="black"/>
<path d="M276.5 531H275V532.5H276.5V531Z" fill="black"/>
<path d="M256.5 503H255V504.5H256.5V503Z" fill="black"/>
<path d="M260.5 507H259V508.5H260.5V507Z" fill="black"/>
<path d="M264.5 503H263V504.5H264.5V503Z" fill="black"/>
<path d="M268.5 507H267V508.5H268.5V507Z" fill="black"/>
<path d="M256.5 511H255V512.5H256.5V511Z" fill="black"/>
<path d="M260.5 515H259V516.5H260.5V515Z" fill="black"/>
<path d="M264.5 511H263V512.5H264.5V511Z" fill="black"/>
<path d="M268.5 515H267V516.5H268.5V515Z" fill="black"/>
<path d="M272.5 503H271V504.5H272.5V503Z" fill="black"/>
<path d="M276.5 507H275V508.5H276.5V507Z" fill="black"/>
<path d="M272.5 511H271V512.5H272.5V511Z" fill="black"/>
<path d="M276.5 515H275V516.5H276.5V515Z" fill="black"/>
<path d="M232.5 519H231V520.5H232.5V519Z" fill="black"/>
<path d="M236.5 523H235V524.5H236.5V523Z" fill="black"/>
<path d="M240.5 519H239V520.5H240.5V519Z" fill="black"/>
<path d="M244.5 523H243V524.5H244.5V523Z" fill="black"/>
<path d="M232.5 527H231V528.5H232.5V527Z" fill="black"/>
<path d="M236.5 531H235V532.5H236.5V531Z" fill="black"/>
<path d="M240.5 527H239V528.5H240.5V527Z" fill="black"/>
<path d="M244.5 531H243V532.5H244.5V531Z" fill="black"/>
<path d="M248.5 519H247V520.5H248.5V519Z" fill="black"/>
<path d="M252.5 523H251V524.5H252.5V523Z" fill="black"/>
<path d="M248.5 527H247V528.5H248.5V527Z" fill="black"/>
<path d="M252.5 531H251V532.5H252.5V531Z" fill="black"/>
<path d="M232.5 503H231V504.5H232.5V503Z" fill="black"/>
<path d="M236.5 507H235V508.5H236.5V507Z" fill="black"/>
<path d="M240.5 503H239V504.5H240.5V503Z" fill="black"/>
<path d="M244.5 507H243V508.5H244.5V507Z" fill="black"/>
<path d="M232.5 511H231V512.5H232.5V511Z" fill="black"/>
<path d="M236.5 515H235V516.5H236.5V515Z" fill="black"/>
<path d="M240.5 511H239V512.5H240.5V511Z" fill="black"/>
<path d="M244.5 515H243V516.5H244.5V515Z" fill="black"/>
<path d="M248.5 503H247V504.5H248.5V503Z" fill="black"/>
<path d="M252.5 507H251V508.5H252.5V507Z" fill="black"/>
<path d="M248.5 511H247V512.5H248.5V511Z" fill="black"/>
<path d="M252.5 515H251V516.5H252.5V515Z" fill="black"/>
<path d="M208.5 519H207V520.5H208.5V519Z" fill="black"/>
<path d="M212.5 523H211V524.5H212.5V523Z" fill="black"/>
<path d="M216.5 519H215V520.5H216.5V519Z" fill="black"/>
<path d="M220.5 523H219V524.5H220.5V523Z" fill="black"/>
<path d="M208.5 527H207V528.5H208.5V527Z" fill="black"/>
<path d="M212.5 531H211V532.5H212.5V531Z" fill="black"/>
<path d="M216.5 527H215V528.5H216.5V527Z" fill="black"/>
<path d="M220.5 531H219V532.5H220.5V531Z" fill="black"/>
<path d="M224.5 519H223V520.5H224.5V519Z" fill="black"/>
<path d="M228.5 523H227V524.5H228.5V523Z" fill="black"/>
<path d="M224.5 527H223V528.5H224.5V527Z" fill="black"/>
<path d="M228.5 531H227V532.5H228.5V531Z" fill="black"/>
<path d="M208.5 503H207V504.5H208.5V503Z" fill="black"/>
<path d="M212.5 507H211V508.5H212.5V507Z" fill="black"/>
<path d="M216.5 503H215V504.5H216.5V503Z" fill="black"/>
<path d="M220.5 507H219V508.5H220.5V507Z" fill="black"/>
<path d="M208.5 511H207V512.5H208.5V511Z" fill="black"/>
<path d="M212.5 515H211V516.5H212.5V515Z" fill="black"/>
<path d="M216.5 511H215V512.5H216.5V511Z" fill="black"/>
<path d="M220.5 515H219V516.5H220.5V515Z" fill="black"/>
<path d="M224.5 503H223V504.5H224.5V503Z" fill="black"/>
<path d="M228.5 507H227V508.5H228.5V507Z" fill="black"/>
<path d="M224.5 511H223V512.5H224.5V511Z" fill="black"/>
<path d="M228.5 515H227V516.5H228.5V515Z" fill="black"/>
<path d="M184.5 519H183V520.5H184.5V519Z" fill="black"/>
<path d="M188.5 523H187V524.5H188.5V523Z" fill="black"/>
<path d="M192.5 519H191V520.5H192.5V519Z" fill="black"/>
<path d="M196.5 523H195V524.5H196.5V523Z" fill="black"/>
<path d="M184.5 527H183V528.5H184.5V527Z" fill="black"/>
<path d="M188.5 531H187V532.5H188.5V531Z" fill="black"/>
<path d="M192.5 527H191V528.5H192.5V527Z" fill="black"/>
<path d="M196.5 531H195V532.5H196.5V531Z" fill="black"/>
<path d="M200.5 519H199V520.5H200.5V519Z" fill="black"/>
<path d="M204.5 523H203V524.5H204.5V523Z" fill="black"/>
<path d="M200.5 527H199V528.5H200.5V527Z" fill="black"/>
<path d="M204.5 531H203V532.5H204.5V531Z" fill="black"/>
<path d="M184.5 503H183V504.5H184.5V503Z" fill="black"/>
<path d="M188.5 507H187V508.5H188.5V507Z" fill="black"/>
<path d="M192.5 503H191V504.5H192.5V503Z" fill="black"/>
<path d="M196.5 507H195V508.5H196.5V507Z" fill="black"/>
<path d="M184.5 511H183V512.5H184.5V511Z" fill="black"/>
<path d="M188.5 515H187V516.5H188.5V515Z" fill="black"/>
<path d="M192.5 511H191V512.5H192.5V511Z" fill="black"/>
<path d="M196.5 515H195V516.5H196.5V515Z" fill="black"/>
<path d="M200.5 503H199V504.5H200.5V503Z" fill="black"/>
<path d="M204.5 507H203V508.5H204.5V507Z" fill="black"/>
<path d="M200.5 511H199V512.5H200.5V511Z" fill="black"/>
<path d="M204.5 515H203V516.5H204.5V515Z" fill="black"/>
<path d="M160.5 519H159V520.5H160.5V519Z" fill="black"/>
<path d="M164.5 523H163V524.5H164.5V523Z" fill="black"/>
<path d="M168.5 519H167V520.5H168.5V519Z" fill="black"/>
<path d="M172.5 523H171V524.5H172.5V523Z" fill="black"/>
<path d="M160.5 527H159V528.5H160.5V527Z" fill="black"/>
<path d="M164.5 531H163V532.5H164.5V531Z" fill="black"/>
<path d="M168.5 527H167V528.5H168.5V527Z" fill="black"/>
<path d="M172.5 531H171V532.5H172.5V531Z" fill="black"/>
<path d="M176.5 519H175V520.5H176.5V519Z" fill="black"/>
<path d="M180.5 523H179V524.5H180.5V523Z" fill="black"/>
<path d="M176.5 527H175V528.5H176.5V527Z" fill="black"/>
<path d="M180.5 531H179V532.5H180.5V531Z" fill="black"/>
<path d="M160.5 503H159V504.5H160.5V503Z" fill="black"/>
<path d="M164.5 507H163V508.5H164.5V507Z" fill="black"/>
<path d="M168.5 503H167V504.5H168.5V503Z" fill="black"/>
<path d="M172.5 507H171V508.5H172.5V507Z" fill="black"/>
<path d="M160.5 511H159V512.5H160.5V511Z" fill="black"/>
<path d="M164.5 515H163V516.5H164.5V515Z" fill="black"/>
<path d="M168.5 511H167V512.5H168.5V511Z" fill="black"/>
<path d="M172.5 515H171V516.5H172.5V515Z" fill="black"/>
<path d="M176.5 503H175V504.5H176.5V503Z" fill="black"/>
<path d="M180.5 507H179V508.5H180.5V507Z" fill="black"/>
<path d="M176.5 511H175V512.5H176.5V511Z" fill="black"/>
<path d="M180.5 515H179V516.5H180.5V515Z" fill="black"/>
<path d="M136.5 519H135V520.5H136.5V519Z" fill="black"/>
<path d="M140.5 523H139V524.5H140.5V523Z" fill="black"/>
<path d="M144.5 519H143V520.5H144.5V519Z" fill="black"/>
<path d="M148.5 523H147V524.5H148.5V523Z" fill="black"/>
<path d="M136.5 527H135V528.5H136.5V527Z" fill="black"/>
<path d="M140.5 531H139V532.5H140.5V531Z" fill="black"/>
<path d="M144.5 527H143V528.5H144.5V527Z" fill="black"/>
<path d="M148.5 531H147V532.5H148.5V531Z" fill="black"/>
<path d="M152.5 519H151V520.5H152.5V519Z" fill="black"/>
<path d="M156.5 523H155V524.5H156.5V523Z" fill="black"/>
<path d="M152.5 527H151V528.5H152.5V527Z" fill="black"/>
<path d="M156.5 531H155V532.5H156.5V531Z" fill="black"/>
<path d="M136.5 503H135V504.5H136.5V503Z" fill="black"/>
<path d="M140.5 507H139V508.5H140.5V507Z" fill="black"/>
<path d="M144.5 503H143V504.5H144.5V503Z" fill="black"/>
<path d="M148.5 507H147V508.5H148.5V507Z" fill="black"/>
<path d="M136.5 511H135V512.5H136.5V511Z" fill="black"/>
<path d="M140.5 515H139V516.5H140.5V515Z" fill="black"/>
<path d="M144.5 511H143V512.5H144.5V511Z" fill="black"/>
<path d="M148.5 515H147V516.5H148.5V515Z" fill="black"/>
<path d="M152.5 503H151V504.5H152.5V503Z" fill="black"/>
<path d="M156.5 507H155V508.5H156.5V507Z" fill="black"/>
<path d="M152.5 511H151V512.5H152.5V511Z" fill="black"/>
<path d="M156.5 515H155V516.5H156.5V515Z" fill="black"/>
<path d="M112.5 519H111V520.5H112.5V519Z" fill="black"/>
<path d="M116.5 523H115V524.5H116.5V523Z" fill="black"/>
<path d="M120.5 519H119V520.5H120.5V519Z" fill="black"/>
<path d="M124.5 523H123V524.5H124.5V523Z" fill="black"/>
<path d="M112.5 527H111V528.5H112.5V527Z" fill="black"/>
<path d="M116.5 531H115V532.5H116.5V531Z" fill="black"/>
<path d="M120.5 527H119V528.5H120.5V527Z" fill="black"/>
<path d="M124.5 531H123V532.5H124.5V531Z" fill="black"/>
<path d="M128.5 519H127V520.5H128.5V519Z" fill="black"/>
<path d="M132.5 523H131V524.5H132.5V523Z" fill="black"/>
<path d="M128.5 527H127V528.5H128.5V527Z" fill="black"/>
<path d="M132.5 531H131V532.5H132.5V531Z" fill="black"/>
<path d="M112.5 503H111V504.5H112.5V503Z" fill="black"/>
<path d="M116.5 507H115V508.5H116.5V507Z" fill="black"/>
<path d="M120.5 503H119V504.5H120.5V503Z" fill="black"/>
<path d="M124.5 507H123V508.5H124.5V507Z" fill="black"/>
<path d="M112.5 511H111V512.5H112.5V511Z" fill="black"/>
<path d="M116.5 515H115V516.5H116.5V515Z" fill="black"/>
<path d="M120.5 511H119V512.5H120.5V511Z" fill="black"/>
<path d="M124.5 515H123V516.5H124.5V515Z" fill="black"/>
<path d="M128.5 503H127V504.5H128.5V503Z" fill="black"/>
<path d="M132.5 507H131V508.5H132.5V507Z" fill="black"/>
<path d="M128.5 511H127V512.5H128.5V511Z" fill="black"/>
<path d="M132.5 515H131V516.5H132.5V515Z" fill="black"/>
<path d="M88.5 519H87V520.5H88.5V519Z" fill="black"/>
<path d="M92.5 523H91V524.5H92.5V523Z" fill="black"/>
<path d="M96.5 519H95V520.5H96.5V519Z" fill="black"/>
<path d="M100.5 523H99V524.5H100.5V523Z" fill="black"/>
<path d="M88.5 527H87V528.5H88.5V527Z" fill="black"/>
<path d="M92.5 531H91V532.5H92.5V531Z" fill="black"/>
<path d="M96.5 527H95V528.5H96.5V527Z" fill="black"/>
<path d="M100.5 531H99V532.5H100.5V531Z" fill="black"/>
<path d="M104.5 519H103V520.5H104.5V519Z" fill="black"/>
<path d="M108.5 523H107V524.5H108.5V523Z" fill="black"/>
<path d="M104.5 527H103V528.5H104.5V527Z" fill="black"/>
<path d="M108.5 531H107V532.5H108.5V531Z" fill="black"/>
<path d="M88.5 503H87V504.5H88.5V503Z" fill="black"/>
<path d="M92.5 507H91V508.5H92.5V507Z" fill="black"/>
<path d="M96.5 503H95V504.5H96.5V503Z" fill="black"/>
<path d="M100.5 507H99V508.5H100.5V507Z" fill="black"/>
<path d="M88.5 511H87V512.5H88.5V511Z" fill="black"/>
<path d="M92.5 515H91V516.5H92.5V515Z" fill="black"/>
<path d="M96.5 511H95V512.5H96.5V511Z" fill="black"/>
<path d="M100.5 515H99V516.5H100.5V515Z" fill="black"/>
<path d="M104.5 503H103V504.5H104.5V503Z" fill="black"/>
<path d="M108.5 507H107V508.5H108.5V507Z" fill="black"/>
<path d="M104.5 511H103V512.5H104.5V511Z" fill="black"/>
<path d="M108.5 515H107V516.5H108.5V515Z" fill="black"/>
<path d="M64.5 519H63V520.5H64.5V519Z" fill="black"/>
<path d="M68.5 523H67V524.5H68.5V523Z" fill="black"/>
<path d="M72.5 519H71V520.5H72.5V519Z" fill="black"/>
<path d="M76.5 523H75V524.5H76.5V523Z" fill="black"/>
<path d="M64.5 527H63V528.5H64.5V527Z" fill="black"/>
<path d="M68.5 531H67V532.5H68.5V531Z" fill="black"/>
<path d="M72.5 527H71V528.5H72.5V527Z" fill="black"/>
<path d="M76.5 531H75V532.5H76.5V531Z" fill="black"/>
<path d="M80.5 519H79V520.5H80.5V519Z" fill="black"/>
<path d="M84.5 523H83V524.5H84.5V523Z" fill="black"/>
<path d="M80.5 527H79V528.5H80.5V527Z" fill="black"/>
<path d="M84.5 531H83V532.5H84.5V531Z" fill="black"/>
<path d="M64.5 503H63V504.5H64.5V503Z" fill="black"/>
<path d="M68.5 507H67V508.5H68.5V507Z" fill="black"/>
<path d="M72.5 503H71V504.5H72.5V503Z" fill="black"/>
<path d="M76.5 507H75V508.5H76.5V507Z" fill="black"/>
<path d="M64.5 511H63V512.5H64.5V511Z" fill="black"/>
<path d="M68.5 515H67V516.5H68.5V515Z" fill="black"/>
<path d="M72.5 511H71V512.5H72.5V511Z" fill="black"/>
<path d="M76.5 515H75V516.5H76.5V515Z" fill="black"/>
<path d="M80.5 503H79V504.5H80.5V503Z" fill="black"/>
<path d="M84.5 507H83V508.5H84.5V507Z" fill="black"/>
<path d="M80.5 511H79V512.5H80.5V511Z" fill="black"/>
<path d="M84.5 515H83V516.5H84.5V515Z" fill="black"/>
<path d="M40.5 519H39V520.5H40.5V519Z" fill="black"/>
<path d="M44.5 523H43V524.5H44.5V523Z" fill="black"/>
<path d="M48.5 519H47V520.5H48.5V519Z" fill="black"/>
<path d="M52.5 523H51V524.5H52.5V523Z" fill="black"/>
<path d="M40.5 527H39V528.5H40.5V527Z" fill="black"/>
<path d="M44.5 531H43V532.5H44.5V531Z" fill="black"/>
<path d="M48.5 527H47V528.5H48.5V527Z" fill="black"/>
<path d="M52.5 531H51V532.5H52.5V531Z" fill="black"/>
<path d="M56.5 519H55V520.5H56.5V519Z" fill="black"/>
<path d="M60.5 523H59V524.5H60.5V523Z" fill="black"/>
<path d="M56.5 527H55V528.5H56.5V527Z" fill="black"/>
<path d="M60.5 531H59V532.5H60.5V531Z" fill="black"/>
<path d="M40.5 503H39V504.5H40.5V503Z" fill="black"/>
<path d="M44.5 507H43V508.5H44.5V507Z" fill="black"/>
<path d="M48.5 503H47V504.5H48.5V503Z" fill="black"/>
<path d="M52.5 507H51V508.5H52.5V507Z" fill="black"/>
<path d="M40.5 511H39V512.5H40.5V511Z" fill="black"/>
<path d="M44.5 515H43V516.5H44.5V515Z" fill="black"/>
<path d="M48.5 511H47V512.5H48.5V511Z" fill="black"/>
<path d="M52.5 515H51V516.5H52.5V515Z" fill="black"/>
<path d="M56.5 503H55V504.5H56.5V503Z" fill="black"/>
<path d="M60.5 507H59V508.5H60.5V507Z" fill="black"/>
<path d="M56.5 511H55V512.5H56.5V511Z" fill="black"/>
<path d="M60.5 515H59V516.5H60.5V515Z" fill="black"/>
</svg>
