<svg width="722" height="482" viewBox="0 0 722 482" fill="none" xmlns="http://www.w3.org/2000/svg">
<path d="M721 41.0001L1 41L1 13C1 6.37258 6.37259 0.999999 13 0.999999L709 1.00006C715.627 1.00006 721 6.37264 721 13.0001L721 41.0001Z" fill="#EFF5F5"/>
<path d="M721 41.0001L721 41.5001L721.5 41.5001L721.5 41.0001L721 41.0001ZM1 41L0.5 41L0.5 41.5L1 41.5L1 41ZM721 40.5001L1 40.5L1 41.5L721 41.5001L721 40.5001ZM1.5 41L1.5 13L0.500002 13L0.5 41L1.5 41ZM13 1.5L709 1.50006L709 0.50006L13 0.499999L13 1.5ZM720.5 13.0001L720.5 41.0001L721.5 41.0001L721.5 13.0001L720.5 13.0001ZM709 1.50006C715.351 1.50006 720.5 6.64879 720.5 13.0001L721.5 13.0001C721.5 6.0965 715.904 0.500061 709 0.50006L709 1.50006ZM1.5 13C1.5 6.64872 6.64873 1.5 13 1.5L13 0.499999C6.09645 0.499999 0.500003 6.09644 0.500002 13L1.5 13Z" fill="#555252"/>
<path d="M1 41V40.5H0.5V41H1ZM721 41H721.5V40.5H721V41ZM1 41.5H721V40.5H1V41.5ZM720.5 41V469H721.5V41H720.5ZM709 480.5H13V481.5H709V480.5ZM1.5 469V41H0.5V469H1.5ZM13 480.5C6.64871 480.5 1.5 475.351 1.5 469H0.5C0.5 475.904 6.09643 481.5 13 481.5V480.5ZM720.5 469C720.5 475.351 715.351 480.5 709 480.5V481.5C715.904 481.5 721.5 475.904 721.5 469H720.5Z" fill="#555252"/>
<path d="M26.5 21C26.5 24.0376 24.0376 26.5 21 26.5C17.9624 26.5 15.5 24.0376 15.5 21C15.5 17.9624 17.9624 15.5 21 15.5C24.0376 15.5 26.5 17.9624 26.5 21ZM44.5 21C44.5 24.0376 42.0376 26.5 39 26.5C35.9624 26.5 33.5 24.0376 33.5 21C33.5 17.9624 35.9624 15.5 39 15.5C42.0376 15.5 44.5 17.9624 44.5 21ZM62.5 21C62.5 24.0376 60.0376 26.5 57 26.5C53.9624 26.5 51.5 24.0376 51.5 21C51.5 17.9624 53.9624 15.5 57 15.5C60.0376 15.5 62.5 17.9624 62.5 21Z" fill="white" stroke="#555252"/>
<rect x="181" y="11" width="360" height="20" rx="4" fill="white"/>
</svg>
