<svg width="357" height="465" viewBox="0 0 357 465" fill="none" xmlns="http://www.w3.org/2000/svg">
<rect x="13.953" y="0.517145" width="291" height="364" transform="rotate(2 13.953 0.517145)" fill="white" stroke="#555252"/>
<g style="mix-blend-mode:darken">
<mask id="path-2-inside-1_830_3431" fill="white">
<path d="M13.4708 0L305.293 10.1907L302.745 83.1462L10.9231 72.9555L13.4708 0Z"/>
</mask>
<path d="M302.78 82.1468L10.958 71.9561L10.8882 73.9549L302.71 84.1456L302.78 82.1468Z" fill="#A29F9F" mask="url(#path-2-inside-1_830_3431)"/>
</g>
<rect x="224.546" y="39.0234" width="61.4416" height="9.73333" transform="rotate(2 224.546 39.0234)" fill="#D2D0D0"/>
<rect x="68.2237" y="26.895" width="291" height="364" transform="rotate(8 68.2237 26.895)" fill="white" stroke="#555252"/>
<rect x="147.252" y="160.359" width="97.3333" height="9.73333" transform="rotate(8 147.252 160.359)" fill="#D2D0D0"/>
<rect x="121.514" y="343.493" width="97.3333" height="9.73334" transform="rotate(8 121.514 343.493)" fill="#D2D0D0"/>
<rect x="88.8988" y="225.875" width="9.73333" height="48.6667" transform="rotate(8 88.8988 225.875)" fill="#D2D0D0"/>
<rect x="272.032" y="251.613" width="9.73332" height="48.6667" transform="rotate(8 272.032 251.613)" fill="#D2D0D0"/>
<rect x="120.194" y="181.634" width="145" height="145" transform="rotate(8 120.194 181.634)" stroke="#A29F9F"/>
<line y1="-0.5" x2="103.238" y2="-0.5" transform="matrix(0.601815 0.798636 0.88044 -0.474157 244.028 345.968)" stroke="#A29F9F"/>
<line y1="-0.5" x2="103.238" y2="-0.5" transform="matrix(0.798635 -0.601815 0.715638 0.698472 264.348 201.388)" stroke="#A29F9F"/>
<line y1="-0.5" x2="103.238" y2="-0.5" transform="matrix(-0.798635 0.601815 -0.715638 -0.698471 99.4492 325.648)" stroke="#A29F9F"/>
<line y1="-0.5" x2="103.238" y2="-0.5" transform="matrix(-0.601815 -0.798636 -0.88044 0.474157 119.768 181.069)" stroke="#A29F9F"/>
<path d="M135.385 295.245C140.429 280.849 154.933 272.015 170.039 274.138L190.371 276.995C205.477 279.118 216.984 291.608 217.865 306.836L219.932 342.581L123.546 329.035L135.385 295.245Z" fill="#D2D0D0"/>
<circle cx="186.132" cy="233.398" r="30.4167" transform="rotate(8 186.132 233.398)" fill="#D2D0D0"/>
<rect x="106.648" y="278.02" width="102.417" height="47.6667" transform="rotate(8 106.648 278.02)" fill="white" stroke="#A29F9F"/>
<rect x="112.435" y="285.7" width="46.8417" height="4.86667" transform="rotate(8 112.435 285.7)" fill="#D2D0D0"/>
<rect x="111.25" y="294.134" width="68.1333" height="4.86667" transform="rotate(8 111.25 294.134)" fill="#D2D0D0"/>
<rect x="110.065" y="302.568" width="54.1417" height="4.86667" transform="rotate(8 110.065 302.568)" fill="#D2D0D0"/>
<ellipse cx="112.504" cy="315.811" rx="4.25833" ry="4.25835" transform="rotate(8 112.504 315.811)" fill="#D2D0D0"/>
<g style="mix-blend-mode:darken">
<mask id="path-22-inside-2_830_3431" fill="white">
<path d="M67.7982 26.3303L356.956 66.9689L346.797 139.258L57.6385 98.6199L67.7982 26.3303Z"/>
</mask>
<path d="M346.936 138.268L57.7777 97.6296L57.4993 99.6102L346.658 140.249L346.936 138.268Z" fill="#A29F9F" mask="url(#path-22-inside-2_830_3431)"/>
</g>
<rect x="288.096" y="89.2354" width="46.8416" height="9.73333" transform="rotate(8 288.096 89.2354)" fill="#D2D0D0"/>
<rect x="84.0275" y="50.7263" width="158.775" height="9.73333" transform="rotate(8 84.0275 50.7263)" fill="#A29F9F"/>
<rect x="81.3182" y="70.0037" width="124.708" height="9.73333" transform="rotate(8 81.3182 70.0037)" fill="#A29F9F"/>
<rect x="58.2409" y="98.7046" width="121.667" height="4.86667" transform="rotate(8 58.2409 98.7046)" fill="#F7A6A6"/>
</svg>
