<svg width="292" height="101" viewBox="0 0 292 101" fill="none" xmlns="http://www.w3.org/2000/svg">
<g clip-path="url(#clip0_830_3481)">
<path d="M121.622 34.4014H116.102V33.6924H118.018V22.7104H114.185V24.2434H113.265V21.2154H114.185V21.7524H123.538V21.2154H124.458V24.2434H123.538V22.7104H119.705V33.6914H121.622V34.4014Z" fill="#343232"/>
<path d="M139.042 34.4014H134.48V33.6924H135.918V28.4214H128.731V33.6924H130.169V34.4014H125.607V33.6924H127.045V22.4614H125.607V21.7524H130.169V22.4614H128.731V27.5594H135.918V22.4614H134.48V21.7524H139.042V22.4614H137.585V33.6924H139.042V34.4014Z" fill="#343232"/>
<path d="M149.361 34.4014H140.641V33.6924H142.079V22.4614H140.641V21.7524H148.287V21.2154H149.169V24.2624H148.307V22.6334H143.765V27.5394H147.387V26.1024L148.269 26.0834V29.8584L147.387 29.8774V28.4014H143.765V33.5374H148.479V31.8504H149.361V34.4014Z" fill="#343232"/>
<path d="M168.301 22.4614H166.863V29.7634C166.863 31.8134 166.134 33.1364 164.544 33.9984C163.739 34.4194 162.819 34.6494 161.88 34.6494C159.102 34.6494 157.051 32.8094 157.051 30.2984V22.4604H155.613V21.7514H160.175V22.4604H158.737V29.7054C158.737 32.0244 160.097 33.5384 162.225 33.5384C164.41 33.5384 165.885 31.9854 165.885 29.6854V22.4604H164.447V21.7514H168.3V22.4614H168.301Z" fill="#343232"/>
<path d="M180.12 34.6124H179.525L172.166 24.4934V33.6924H173.623V34.4014H169.752V33.6924H171.208V23.1894L170.69 22.4604H169.368V21.7514H172.147L179.162 31.3724V22.4604H177.702V21.7514H181.555V22.4604H180.117V34.6124H180.12Z" fill="#343232"/>
<path d="M187.51 34.4014H182.948V33.6924H184.386V22.4614H182.948V21.7524H187.51V22.4614H186.072V33.6924H187.51V34.4014Z" fill="#343232"/>
<path d="M195.25 34.7274H194.6L189.771 22.4614H188.64V21.7524H193.393V22.4614H191.591L195.31 31.8714L198.99 22.4614H197.724V21.7524H201.001V22.4614H200.043L195.253 34.7274H195.25Z" fill="#343232"/>
<path d="M210.869 34.4014H202.149V33.6924H203.587V22.4614H202.149V21.7524H209.795V21.2154H210.677V24.2624H209.815V22.6334H205.273V27.5394H208.895V26.1024L209.777 26.0834V29.8584L208.895 29.8774V28.4014H205.273V33.5374H209.988V31.8504H210.869V34.4014Z" fill="#343232"/>
<path d="M223.779 34.4014H222.15C221.019 34.4014 220.808 34.2864 220.176 33.2704L217.32 28.7284H215.826V33.6924H217.264V34.4014H212.702V33.6924H214.14V22.4614H212.702V21.7524H218.03C219.888 21.7524 220.943 22.2704 221.517 23.4584C221.767 23.9764 221.901 24.5514 221.901 25.1644C221.901 27.0234 220.866 28.2114 219.026 28.4794L221.786 32.7334C222.246 33.4424 222.553 33.6724 223.032 33.6724H223.779V34.4014ZM215.829 27.8464H217.669C219.125 27.8464 220.141 26.7734 220.141 25.2014C220.141 23.5534 219.241 22.6334 217.63 22.6334H215.829V27.8464Z" fill="#343232"/>
<path d="M226.229 34.5734H225.328V31.1234H226.229V32.6374C227.398 33.4234 227.916 33.6154 228.758 33.6154C230.291 33.6154 231.326 32.8104 231.326 31.6034C231.326 30.5104 230.579 29.7064 228.509 28.6324C226.094 27.3674 225.271 26.4094 225.271 24.8374C225.271 22.9404 226.88 21.5224 229.046 21.5224C230.004 21.5224 230.713 21.6944 231.326 22.0594V21.3694H232.208V24.6464H231.326V23.2854C230.348 22.6334 229.87 22.4424 229.102 22.4424C227.799 22.4424 226.956 23.2284 226.956 24.4164C226.956 25.3934 227.513 25.9494 229.908 27.3294C232.303 28.7094 232.993 29.5524 232.993 31.1234C232.993 33.1164 231.346 34.6494 229.18 34.6494C227.973 34.6494 227.187 34.4004 226.229 33.7874V34.5734Z" fill="#343232"/>
<path d="M239.318 34.4014H234.756V33.6924H236.194V22.4614H234.756V21.7524H239.318V22.4614H237.88V33.6924H239.318V34.4014Z" fill="#343232"/>
<path d="M248.918 34.4014H243.398V33.6924H245.314V22.7104H241.481V24.2434H240.561V21.2154H241.481V21.7524H250.834V21.2154H251.754V24.2434H250.834V22.7104H247.001V33.6914H248.918V34.4014Z" fill="#343232"/>
<path d="M261.028 34.4014H256.467V33.6924H257.905V28.5754L253.937 22.4614H252.826V21.7524H257.559V22.4614H255.815L259.112 27.4824L262.159 22.4614H260.415V21.7524H264.249V22.4614H263.252L259.572 28.4604V33.6924H261.028V34.4014Z" fill="#343232"/>
<path d="M269.187 28.0964C269.187 24.4934 271.986 21.5224 275.377 21.5224C278.712 21.5224 281.51 24.5124 281.51 28.0774C281.51 31.6414 278.712 34.6504 275.377 34.6504C272.007 34.6504 269.187 31.6604 269.187 28.0964ZM271.087 28.0774C271.087 31.3164 272.889 33.6544 275.38 33.6544C277.833 33.6544 279.615 31.2974 279.615 28.0774C279.615 24.8574 277.833 22.5194 275.399 22.5194C272.889 22.5194 271.089 24.8184 271.089 28.0774H271.087Z" fill="#343232"/>
<path d="M287.257 34.4014H282.695V33.6924H284.133V22.4614H282.695V21.7524H290.341V21.2154H291.223V24.2624H290.361V22.6334H285.819V27.5394H289.441V26.1024L290.323 26.0834V29.8584L289.441 29.8774V28.4014H285.819V33.6914H287.257V34.4014Z" fill="#343232"/>
<path d="M115.652 75.3427H113.279V66.251H115.652V70.2409C118.733 72.3118 120.097 72.8168 122.319 72.8168C126.36 72.8168 129.087 70.6959 129.087 67.514C129.087 64.6351 127.117 62.5141 121.663 59.6852C115.299 56.3523 113.127 53.8234 113.127 49.6615C113.127 44.6617 117.37 40.9238 123.077 40.9238C125.602 40.9238 127.471 41.3788 129.087 42.3377V40.5198H131.41V49.1565H129.087V45.5706C126.512 43.8537 125.249 43.3487 123.229 43.3487C119.794 43.3487 117.573 45.4196 117.573 48.5505C117.573 51.1285 119.037 52.6034 125.35 56.2513C131.662 59.8882 133.481 62.1101 133.481 66.251C133.481 71.5049 129.137 75.5447 123.431 75.5447C120.249 75.5447 118.178 74.8878 115.653 73.2728L115.652 75.3427Z" fill="#343232"/>
<path d="M156.001 74.8887H143.98V73.0207H147.768V59.5347L137.308 43.3987H134.379V41.5297H146.854V43.3987H142.258L150.945 56.6557L158.976 43.3987H154.379V41.5297H164.481V43.3987H161.855L152.158 59.2317V73.0197H155.996V74.8887H156.001Z" fill="#343232"/>
<path d="M167.01 74.8887V73.0207H170.798V43.3987H167.01V41.5297H181.909C191.001 41.5297 198.425 49.0047 198.425 58.1717C198.425 67.5157 191.153 74.8887 181.859 74.8887H167.01ZM175.24 72.3627H181.302C188.221 72.3627 193.474 66.2517 193.423 58.2217C193.423 50.4187 188.069 44.1057 181.402 44.1057H175.24V72.3627Z" fill="#343232"/>
<path d="M227.559 75.4437H225.994L206.599 48.7525V73.0198H210.438V74.8877H200.235V73.0198H204.074V45.3176L202.711 43.3987H199.226V41.5297H206.549L225.034 66.908V43.3987H221.196V41.5297H231.346V43.3987H227.559V75.4437Z" fill="#343232"/>
<path d="M257.758 74.8877H234.778V73.0198H238.566V43.3987H234.778V41.5297H254.93V40.1158H257.253V48.1465H254.981V43.8537H243.01V56.8073H252.556V53.0104L254.879 52.9594V62.9181L252.556 62.9691V59.0792H243.01V72.6148H255.435V68.1709H257.758V74.8877Z" fill="#343232"/>
<path d="M282.747 74.8887H270.727V73.0207H274.514V59.5347L264.055 43.3987H261.125V41.5297H273.6V43.3987H269.004L277.691 56.6557L285.723 43.3987H281.125V41.5297H291.228V43.3987H288.602L278.905 59.2317V73.0197H282.742V74.8887H282.747Z" fill="#343232"/>
<path d="M49.9339 65.5211H57.3857V64.3921H49.9339V65.5211ZM49.9339 68.607H57.3857V67.48H49.9339V68.607ZM49.9339 62.4361H57.3857V61.3072H49.9339V62.4361ZM44.566 64.3931H37.1113V65.5221H44.566V64.3931ZM44.566 67.48H37.1113V68.607H44.566V67.48ZM44.566 61.3072H37.1113V62.4361H44.566V61.3072ZM56.4037 41.5198C53.3778 41.3658 50.2969 41.2738 47.248 41.2738C44.2071 41.2738 41.1311 41.3658 38.1092 41.5178V56.5723H9.2921C10.4931 63.7931 13.435 70.5599 17.6668 76.1907C18.2368 75.3878 19.1708 74.8648 20.2308 74.8648H38.1092V90.5203C41.0312 91.3243 44.0841 91.7653 47.242 91.7653V91.8933H47.256V91.7653C50.4199 91.7653 53.4778 91.3233 56.4037 90.5153V74.8648H74.2862C75.3371 74.8648 76.2681 75.3828 76.8421 76.1787C81.066 70.5519 84.0059 63.7861 85.2048 56.5723H56.4037V41.5198ZM41.9711 46.2136L45.866 48.0616L47.259 44.0207L48.7059 48.0846L52.5478 46.2136L50.6939 50.1085L54.7387 51.4995L50.6739 52.9484L52.5478 56.7883L48.6509 54.9424L47.258 58.9792L45.807 54.9174L41.9711 56.7883L43.8171 52.8864L39.7752 51.4985L43.8411 50.0495L41.9711 46.2136ZM28.3505 71.0759L24.5066 69.2049L23.0577 73.2668L21.6727 69.2279L17.7648 71.0759L19.6478 67.238L15.5799 65.791L19.6208 64.3981L17.7658 60.4962L21.6097 62.3691L23.0587 58.3103L24.4496 62.3451L28.3515 60.4952L26.4786 64.3391L30.5395 65.79L26.4986 67.175L28.3505 71.0759ZM34.5253 70.7909H32.8324V69.5509H34.5253V70.7909ZM34.5253 67.477H32.8324V66.228H34.5253V67.477ZM34.5253 64.1541H32.8324V62.9141H34.5253V64.1541ZM34.5253 60.8382H32.8324V59.5922H34.5253V60.8382ZM35.4283 70.7969V58.8283H42.9711C43.1141 58.8073 43.2831 58.8283 43.4341 58.8283C45.159 58.8283 46.483 60.1542 46.483 61.8462V71.8749C45.922 71.2109 45.079 70.7909 44.1371 70.7909C44.0141 70.7909 37.7892 70.7949 35.4283 70.7969ZM52.5448 86.4074L48.6469 84.5575L47.258 88.6074L45.807 84.5305L41.9671 86.4074L43.8191 82.5095L39.7762 81.1166L43.8401 79.6656L41.9671 75.8297L45.863 77.6777L47.258 73.6408L48.7089 77.7027L52.5438 75.8297L50.6969 79.7276L54.7387 81.1166L50.6739 82.5675L52.5448 86.4074ZM66.1474 60.4962L70.0543 62.3461L71.4402 58.3113L72.8922 62.3701L76.7311 60.4972L74.8801 64.3981L78.921 65.791L74.8521 67.238L76.7311 71.0759L72.8272 69.2279L71.4402 73.2668L69.9893 69.2049L66.1474 71.0759L68.0014 67.176L63.9595 65.791L68.0213 64.3401L66.1474 60.4962ZM59.9696 59.5922H61.6645V60.8382H59.9696V59.5922ZM59.9696 62.9141H61.6645V64.1541H59.9696V62.9141ZM59.9696 66.228H61.6645V67.476H59.9696V66.228ZM59.9696 69.5509H61.6645V70.7909H59.9696V69.5509ZM59.0726 58.8283V70.7969C56.7097 70.7949 50.4849 70.7909 50.3639 70.7909C49.4209 70.7909 48.5809 71.2109 48.0179 71.8749V61.8462C48.0179 60.1552 49.3439 58.8283 51.0649 58.8283C51.2149 58.8283 51.3848 58.8073 51.5298 58.8283H59.0726ZM73.9262 7.79877C66.4934 6.23181 56.6847 4.67186 47.248 4.67186C33.0884 4.66786 18.1118 8.18976 11.536 9.9507C10.2241 10.3007 9.2491 10.5817 8.67911 10.7477V42.9717C12.941 42.2857 30.5535 39.6108 47.248 39.6088C63.9435 39.6108 81.5509 42.2847 85.8178 42.9717V10.7477C85.2448 10.5817 84.2709 10.3007 82.9589 9.9507C80.764 9.36472 77.6421 8.58374 73.9262 7.79877ZM33.6504 11.1857C34.2324 11.0507 32.9764 10.0857 33.7964 10.1307C34.3334 10.1597 36.0933 10.1657 37.4273 10.8167C37.6813 10.9237 37.8372 10.4417 38.3432 10.1177C38.3842 10.0927 38.5052 10.0457 38.5952 10.1157C39.1202 10.4397 39.3062 10.9107 39.5602 10.8017C40.8842 10.1667 42.6301 10.1667 43.1581 10.1317C44.0101 10.0787 42.7241 11.0517 43.3061 11.1867C46.314 11.8836 48.5439 14.4326 48.5439 17.4695C48.5439 18.3485 48.3289 19.1684 48.0299 19.9344C47.866 20.3444 47.436 19.1724 47.278 19.8564C46.983 21.0944 46.682 22.0243 46.028 23.2563C45.403 24.4143 44.3721 21.9863 44.0511 22.6743C43.4691 23.8973 42.1081 24.3193 41.1562 24.4653C41.0472 24.4773 40.9452 24.4633 41.0761 24.3383C41.1251 24.2913 41.3551 24.0783 41.4181 23.6453C41.4261 23.5983 41.3981 23.5303 41.5001 23.4853C42.2171 23.1433 42.7581 22.4773 42.9181 21.6734C43.1471 20.9274 43.4491 19.8644 43.8161 19.2064C44.63 17.7575 43.6401 16.0015 43.8941 15.6105C44.4531 15.2475 44.824 14.6146 44.824 13.8936C44.824 12.7586 43.8981 11.8386 42.7711 11.8386C42.1561 11.8386 41.6071 12.1086 41.2381 12.5316L41.1791 12.5866C40.9912 12.7856 40.8082 12.9906 40.6462 13.2076C40.4602 13.4476 40.5012 13.8796 40.8242 13.9676C42.2241 14.3326 43.1401 17.4855 42.5661 18.5084C42.3121 18.9634 41.5391 20.6604 41.5391 21.1544C41.5391 21.7914 41.0272 22.3043 40.3932 22.3043C39.9072 22.3043 39.4972 22.0033 39.3252 21.5564C39.3252 21.5564 39.3452 21.5194 39.3482 21.5074C39.7372 21.2654 40.5902 20.7534 40.5902 20.2204L40.4202 18.4935C41.1171 18.4095 41.4401 18.0305 41.5251 17.3705C41.5871 17.3275 41.6501 17.2805 41.7051 17.2335C41.9371 17.0205 42.0941 16.4445 41.5941 16.5265C40.8832 16.6595 40.0782 16.6335 39.2992 16.8505C39.1952 16.8775 39.1192 16.9715 39.1002 17.0715C39.0672 17.2215 39.5242 19.3074 39.6252 19.7704C39.6332 19.8234 39.5982 19.8544 39.5722 19.8544C39.2582 19.8294 38.6892 19.8014 38.5512 19.8014C38.4162 19.8034 37.8632 19.8324 37.5333 19.8604C37.5003 19.8624 37.4533 19.8194 37.4653 19.7764C37.5703 19.2844 38.0272 17.2085 38.0272 17.2085C38.0392 17.1225 38.0272 17.0305 37.9782 16.9605C37.8282 16.7635 35.7923 16.5895 35.5193 16.5365C35.4023 16.5155 35.2873 16.5595 35.2143 16.6575C35.0133 16.9425 35.3663 17.2625 35.5913 17.3975C35.6793 18.0385 36.0153 18.4095 36.6913 18.4935C36.6993 18.5034 36.7123 18.5224 36.7203 18.5264C36.6993 18.6394 36.5273 20.2394 36.5273 20.2494C36.5273 20.8024 37.3693 21.2694 37.7852 21.5134C37.8082 21.5424 37.8382 21.5774 37.8442 21.6174C37.6433 22.0173 37.2463 22.3053 36.7893 22.3053C36.1523 22.3053 35.6413 21.7914 35.6413 21.1554C35.6413 20.7474 34.8813 18.9734 34.5943 18.4915C33.9854 17.4385 34.8913 14.3356 36.3463 13.9706C36.6603 13.8946 36.8233 13.4376 36.5783 13.1976C35.9693 12.5936 35.2713 11.8406 34.3484 11.8406C33.2154 11.8406 32.2974 12.7606 32.2974 13.8956C32.2974 15.1945 33.2954 15.4015 33.2274 15.7605C32.8254 16.9655 32.8174 18.2815 33.3604 19.2094C33.7354 19.8524 34.0204 20.8774 34.2474 21.6114C34.3843 22.3653 34.8413 23.0073 35.4853 23.3843C35.8053 23.5703 35.6493 23.8183 35.7843 24.0873C35.8463 24.2163 35.9503 24.3023 36.0323 24.3723C36.1693 24.4773 36.0633 24.5013 35.9503 24.4853C34.9933 24.3643 33.5164 23.9623 32.9074 22.6743C32.5874 21.9863 31.5464 24.4143 30.9305 23.2563C30.2745 22.0243 29.9735 21.0944 29.6805 19.8564C29.5205 19.1724 29.0905 20.3444 28.9265 19.9344C28.6255 19.1684 28.4125 18.3485 28.4125 17.4695C28.4145 14.4316 30.6475 11.8826 33.6504 11.1857ZM42.2191 13.3046C42.1861 13.2756 42.1941 13.1566 42.2351 13.1306C42.3831 13.0156 42.5691 12.9506 42.7741 12.9506C43.2801 12.9506 43.6901 13.3586 43.6901 13.8646C43.6901 14.1516 43.5571 14.4056 43.3541 14.5736C43.2991 14.6246 43.1981 14.5656 43.1781 14.5186C42.9161 14.0486 42.5961 13.6286 42.2191 13.3046ZM40.1432 23.6343C39.9242 24.2143 39.1062 24.0213 38.6702 24.3783C38.6232 24.4213 38.4922 24.4213 38.4552 24.3903C38.0212 24.0213 37.2093 24.2023 36.9473 23.5723C36.9273 23.5233 36.9273 23.4203 37.0453 23.4023C37.6193 23.3383 38.1312 23.0583 38.5022 22.6503C38.5332 22.6113 38.6312 22.5763 38.7132 22.6713C39.0492 23.0443 39.5222 23.3173 40.0452 23.4013C40.1082 23.4113 40.2012 23.4643 40.1432 23.6343ZM33.9674 14.5716C33.9474 14.6026 33.8544 14.6356 33.7764 14.5836C33.5714 14.4116 33.4364 14.1556 33.4364 13.8646C33.4364 13.3586 33.8444 12.9506 34.3504 12.9506C34.5963 12.9506 34.8193 13.0486 34.9873 13.2046C35.0553 13.2556 35.0163 13.3746 34.9793 13.4076C34.5843 13.7266 34.2404 14.1306 33.9674 14.5716ZM25.8406 26.3782C25.2176 26.3782 24.9576 26.5792 24.4986 26.8722C24.2117 27.0732 24.1237 26.5112 24.4656 25.3582C24.7386 24.4543 22.9657 23.9673 22.5437 24.3893C21.9477 24.8543 20.4208 25.7642 18.9328 24.1963C18.6338 23.8823 19.6108 23.9873 19.6688 23.7123C19.7548 23.3083 20.1258 23.0643 20.2798 22.9013C20.3658 22.7783 20.3658 22.5903 20.2138 22.5183C19.7548 22.2723 19.1278 21.7434 19.3038 20.7664C19.3248 20.6274 18.5268 20.5804 18.7918 20.3364C20.1898 19.0414 21.7177 19.8484 22.3307 20.2644C22.4377 20.3034 22.6547 20.3234 22.6747 20.1164C22.7217 19.6984 22.5047 19.4194 23.3447 18.7214C23.5067 18.5864 22.8587 18.0225 23.3117 18.0495C26.2096 18.7764 24.8976 21.7794 25.4996 22.3093C26.6046 23.2953 29.2785 24.0733 31.7944 24.6123C32.0114 24.6593 32.7924 24.9363 32.9564 25.0223C34.9873 26.0592 36.2313 25.9582 37.3313 25.5262C37.6833 25.3912 37.6793 25.8352 37.5583 25.9462C33.5254 29.7941 30.4565 28.8171 29.3705 28.1202C28.6165 27.6362 27.0716 27.6202 26.3586 28.6101C26.2356 28.7291 26.0186 28.8051 25.9286 28.4892C25.7156 27.7492 25.9486 27.2662 26.1666 26.7332C26.3036 26.4562 25.9616 26.3782 25.8406 26.3782ZM64.3045 29.9501C63.7635 30.4231 62.7975 30.9381 61.2686 30.8841C60.6226 30.8571 60.3096 31.0421 60.1476 31.2341C60.0516 31.3651 59.9926 31.5271 59.9816 31.5601C59.8926 31.8781 60.0096 32.218 60.1806 32.486C60.3446 32.72 60.2826 32.871 60.0286 32.931C59.7766 32.997 59.4436 33.003 58.7866 32.687C58.4976 32.548 58.4156 32.726 58.3776 32.861C58.2686 33.179 58.4786 33.574 58.9076 33.859C59.1286 34.052 59.0876 34.24 58.7436 34.361C58.1656 34.562 57.6467 34.299 56.7987 33.828C56.3017 33.551 55.9157 33.506 55.5807 33.902C55.3897 34.121 55.4077 34.326 55.5187 34.439C55.8487 34.765 56.0447 35.4189 55.2247 36.4529C54.9527 36.7949 54.6587 35.8489 54.4088 35.9629C53.2838 36.4879 52.3618 35.8009 52.0128 35.3279C51.9368 35.2319 51.7808 35.201 51.5858 35.326C51.0239 35.7029 49.8199 36.3239 49.3559 35.24C49.2839 35.082 48.6219 35.4859 48.6289 35.176C48.6539 33.381 50.2129 33.045 50.8789 32.987C51.0819 32.966 51.1229 32.868 51.0159 32.704C50.7499 32.315 50.4299 31.8521 50.6059 31.3131C50.7289 30.9171 49.7079 30.8251 50.1259 30.6201C52.1828 29.5951 53.3338 31.5561 53.6898 31.7661C54.2858 32.108 56.9697 31.2371 57.2967 29.7841C57.3667 29.4991 56.6707 29.3721 55.9807 29.2001C55.8557 29.1711 55.7857 29.0111 56.0127 28.8291C57.6417 27.6182 58.9476 26.0482 61.8915 25.7552C62.2475 25.7182 62.3915 26.0132 62.4025 26.1572C62.4595 26.6142 62.5795 27.0612 62.7745 27.4772C63.2005 28.3792 63.7125 28.9401 64.2305 29.3501C64.4775 29.5481 64.4475 29.8271 64.3045 29.9501ZM76.6301 29.0281C76.8881 29.1631 76.8961 29.3291 76.7041 29.4971C76.5051 29.6711 76.2051 29.8311 75.4791 29.8471C75.1631 29.8511 75.1671 30.0501 75.1921 30.1851C75.2381 30.5171 75.6091 30.7731 76.1261 30.8331C76.4041 30.9051 76.4541 31.0911 76.2051 31.3531C75.7751 31.8001 75.2001 31.8001 74.2292 31.7651C73.3132 31.7321 72.5832 32.843 73.1212 33.306C73.4842 33.618 74.2232 34.308 73.5862 36.1829C73.3842 36.7489 73.0392 35.6629 72.7462 35.8329C71.9872 36.2839 71.3252 35.7159 70.9803 35.3079C70.8333 35.134 70.7013 35.128 70.6003 35.3079C70.2963 35.8369 69.4963 36.7709 67.8834 35.8999C67.5344 35.7139 66.8134 36.3549 66.7714 36.1359C66.5094 34.882 67.1524 34.14 67.7004 33.749C67.7554 33.706 67.9664 33.421 67.6094 33.431C67.0634 33.402 66.4004 33.226 66.3254 32.56C66.3134 32.417 65.6304 32.453 65.6644 32.261C65.8264 31.3391 67.8544 30.6711 69.2513 31.5971C70.4343 32.378 71.9182 29.7141 70.8523 28.4642C70.0803 27.5662 65.5654 30.0811 64.0305 26.8142C63.4145 25.5002 64.1865 24.3763 63.5595 24.2873C62.9305 24.1973 60.0916 23.5843 56.9407 26.1152C51.6148 30.3941 45.842 28.0622 44.4841 27.1092C44.2711 27.0432 44.0641 27.2132 44.1541 27.4272C44.3731 27.9782 44.2791 28.4912 44.0131 28.8841C43.4581 29.7221 41.5441 30.5771 41.2061 30.6771C38.9642 31.3351 39.2002 33.048 39.4352 33.812C39.5052 34.044 39.4192 34.183 39.1772 34.14C38.4912 34.013 37.1073 33.593 36.5643 32.247C36.5033 32.091 36.3473 32.085 36.1623 32.218C35.3283 32.812 35.6233 33.675 35.8203 34.058C35.8963 34.21 35.8533 34.355 35.6563 34.376C34.8923 34.468 34.3444 33.577 33.6854 33.642C33.2554 33.683 32.7514 34.013 32.4784 34.204C32.3454 34.288 32.3264 34.505 32.4084 34.751C33.2444 37.2309 31.8694 37.3149 31.7874 37.2709C31.6894 37.2179 31.7444 36.8039 31.3444 36.7419C29.9965 36.8159 29.6125 35.9369 29.5375 35.2869C29.5105 35.076 29.4285 35.004 29.2855 35.101C28.7715 35.4559 27.5146 36.1559 26.7246 35.126C26.6116 34.98 26.2346 35.134 26.0296 35.222C25.8656 35.29 25.8616 35.023 25.8656 34.939C25.9616 33.523 26.9206 32.886 27.4476 32.64C27.6426 32.548 27.6645 32.447 27.5086 32.331C27.0826 32.015 26.3306 31.3311 26.5696 30.5891C26.6126 30.4481 25.9406 30.1831 26.1086 30.0621C27.6595 28.9391 29.6475 30.8021 29.9015 31.0031C30.1675 31.2161 31.5774 31.2611 35.1713 29.2411C37.4563 27.9582 38.6512 26.8972 39.3022 26.0912C39.3822 25.9972 39.5482 25.8252 39.7812 25.8182C41.2301 25.7692 42.6621 25.5542 43.7811 24.5703C43.9651 24.3793 44.1561 24.4923 44.2341 24.5473C46.289 25.9772 47.349 22.8133 47.773 21.3674C47.828 21.0744 47.8899 20.8324 48.2029 20.8164C55.7737 21.1794 70.1193 21.1284 70.1193 21.1284C70.1193 21.1284 72.0112 21.2784 71.9122 20.1034C71.7622 18.2205 63.9355 18.2615 58.0966 19.0664C55.9757 19.3574 52.8948 19.5254 51.0739 18.8204C50.3179 18.5274 49.7069 18.0605 49.3669 17.4575C49.0039 16.6895 49.0989 16.2305 49.1679 15.7445C49.2579 15.3925 49.4299 15.0196 49.6759 14.6256C51.1719 12.3136 54.6367 12.1376 55.7117 12.1376C55.9177 12.1376 56.0467 12.0496 56.0747 11.8996C56.1827 11.3647 56.5877 10.1317 58.0386 10.0517C58.4466 10.0267 58.8626 9.87171 59.1206 9.75271C59.2926 9.67471 59.4016 9.72171 59.3706 9.87171C59.3296 10.0577 59.2406 10.3077 59.0266 10.4927C58.0076 11.3657 58.1576 11.7676 58.2806 11.8836C58.3506 11.9386 58.4416 11.9106 58.5196 11.8386C61.6045 9.15073 63.4015 10.9307 63.9505 11.5127C64.0425 11.6147 64.0665 11.7786 63.8885 11.8216C61.7915 12.2906 60.9836 14.1596 56.7037 13.8586C56.1827 13.8256 52.6798 13.6496 51.5668 15.2355C50.9259 16.1575 51.3718 17.0165 53.2638 17.4345C54.7007 17.7485 58.0506 17.2625 59.6296 17.1335C61.1746 17.0065 67.9164 16.1645 71.4492 17.1825C72.9412 17.6085 75.1081 18.8054 74.6782 21.0654C74.3962 22.4913 73.0242 23.0513 73.0242 23.0513C73.0242 23.0513 69.1453 25.7802 76.1001 25.8092C78.258 25.8192 76.1341 27.5942 76.0241 28.1162C75.9441 28.4912 76.2941 28.8311 76.6301 29.0281ZM63.8645 13.9486C63.6535 13.9856 63.3525 14.0776 63.0245 14.2946C62.3965 14.7166 59.8806 15.7615 59.0946 14.5036C59.0946 14.5036 60.8566 14.4426 62.0055 13.4276C62.0055 13.4276 63.2385 13.0076 63.9595 13.6596C64.0435 13.7356 64.0555 13.9156 63.8645 13.9486ZM47.258 0C23.5827 0 0.00537109 6.30281 0.00537109 6.30281V37.8059C0.00537109 66.2 20.3388 95.7202 47.248 100.821C75.1531 95.3652 94.5136 66.2 94.5136 37.8059V6.30681C94.5136 6.30681 74.7642 0.00399988 47.258 0.00399988V0ZM87.4838 49.3035C87.4808 72.4198 69.9113 93.4072 47.256 93.4342H47.242C24.5846 93.4072 7.01516 72.4198 7.01116 49.3035V9.51172L7.60115 9.33172C7.64014 9.32172 28.0185 3.00991 47.248 3.00391C66.4814 3.00991 86.8958 9.33172 86.8958 9.33172L87.4838 9.51172V49.3035Z" fill="#343232"/>
</g>
<defs>
<clipPath id="clip0_830_3481">
<rect width="291.24" height="100.82" fill="white"/>
</clipPath>
</defs>
</svg>
