<svg class="dtmbr-icon" viewBox="0 0 100 100" fill="none" xmlns="http://www.w3.org/2000/svg">
	<path d="M34 46.9506L53 65L34 98.3962C14.2327 91.8438 0 73.4846 0 51.8609C0 26.3992 21.7334 3.46363 48 3L34 46.9506Z"/>
	<path d="M51 84.5L62.7913 98.6734C58.6097 99.6412 54.2336 100.082 49.7396 99.9254C46.6689 99.8182 43.6725 99.4362 40.7733 98.804L51 84.5Z"/>
	<path d="M98.1891 59.7073C93.6339 75.5931 81.888 87.4688 67.5 92.8133L54.5 76.5L65.8136 58.9339L50.2953 39.1896L69.4945 0.147111C72.6372 1.50794 76.3615 3.26139 78.5674 4.78603C95.7298 16.6483 104.258 38.5416 98.1891 59.7073Z"/>
	<path d="M34 46.9506L53 65L34 98.3962C14.2327 91.8438 0 73.4846 0 51.8609C0 26.3992 21.7334 3.46363 48 3L34 46.9506Z"/>
	<path d="M51 84.5L62.7913 98.6734C58.6097 99.6412 54.2336 100.082 49.7396 99.9254C46.6689 99.8182 43.6725 99.4362 40.7733 98.804L51 84.5Z"/>
	<path d="M98.1891 59.7073C93.6339 75.5931 81.888 87.4688 67.5 92.8133L54.5 76.5L65.8136 58.9339L50.2953 39.1896L69.4945 0.14711C72.6372 1.50794 76.3615 3.26139 78.5674 4.78603C95.7298 16.6483 104.258 38.5416 98.1891 59.7073Z"/>
</svg>