<svg class="dtmbr-icon" viewBox="0 0 100 100" fill="none" xmlns="http://www.w3.org/2000/svg">
	<path fill-rule="evenodd" clip-rule="evenodd" d="M50 100C77.6142 100 100 77.6142 100 50C100 22.3858 77.6142 0 50 0C22.3858 0 0 22.3858 0 50C0 77.6142 22.3858 100 50 100ZM50.4791 21.2856L37.0836 37.1778L34.9579 31.2969C29.4908 35.6994 26 42.4442 26 49.9999C26 63.2548 36.7452 73.9999 50 73.9999C63.2548 73.9999 74 63.2548 74 49.9999C74 40.432 68.4013 32.1638 60.2836 28.3075C58.2882 27.3596 57.439 24.9735 58.387 22.9781C59.3349 20.9827 61.7209 20.1335 63.7164 21.0814C74.5183 26.2128 82 37.2287 82 49.9999C82 67.673 67.6731 81.9999 50 81.9999C32.3269 81.9999 18 67.673 18 49.9999C18 38.9426 23.6091 29.2006 32.1236 23.4555L30.0183 17.6309L50.4791 21.2856Z"/>
</svg>