<svg class="dtmbr-icon" viewBox="0 0 100 100" fill="none" xmlns="http://www.w3.org/2000/svg">
	<path d="M50 0C22.4444 0 0 22.3333 0 50C0 77.6667 22.4444 100 50 100C77.6667 100 100 77.6667 100 50C100 22.3333 77.6667 0 50 0ZM51.0001 83.6667C47.5557 84.1112 43.7779 81.778 42.1112 79.3332H58.1112C56.4445 81.7775 53.9999 83.3331 51 83.6667H51.0001ZM58.5555 75.8889H41.5555C40.2223 75.8889 39.1112 74.8888 39.1112 73.6667C39.1112 72.4445 40.2223 71.4444 41.5555 71.4444H58.5555C59.8886 71.4444 60.9997 72.4445 60.9997 73.6667C60.9997 74.7778 59.8886 75.8889 58.5551 75.8889H58.5555ZM68.7777 49.4444C67.5556 51.2221 66.2219 52.9998 64.9998 54.6665C62.9996 57.3332 61.5555 60.111 61.333 63.3333C61.2219 63.7779 61.2219 64.3334 61.2219 64.778C61.2219 66.6667 59.8888 68.0003 57.7776 68.0003H57.5555H41.9999C40.2223 68.0003 38.7776 66.6671 38.7776 65.1115C38.7776 61.5561 37.5555 58.4448 35.5553 55.5559C33.8886 53.2227 32.222 51.1115 30.7773 48.6672C26.2219 41.334 26.2219 31.0006 32.6661 23.8894C36.5549 19.556 41.5549 17.1118 47.6661 16.4452C48.5551 16.3341 49.3327 16.2231 50.2218 16.2231C59.6662 16.2231 68.3329 21.8897 71.3329 30.4453C73.5551 37.0002 72.5554 43.4444 68.7775 49.4444L68.7777 49.4444Z"/>
</svg>